<svg width="376" height="121" viewBox="0 0 376 121" fill="none" xmlns="http://www.w3.org/2000/svg">
<path d="M103.871 80.7577C131.766 68.9141 141.896 42.5269 141.896 27.4074V12.127C131.249 3.97058 117.56 0.757692 103.871 0.757692C90.1824 0.757693 76.4934 3.97058 65.8464 12.127V27.4074C65.8464 42.5269 75.9773 67.4022 103.871 80.7577Z" fill="white" fill-opacity="0.12"/>
<path d="M119.6 25.8063L104.003 16.7577V23.0186L119.6 32.0283L119.6 25.8063Z" fill="#FF6492"/>
<path d="M119.6 32.0283L114.921 34.7577L104 28.4334L97.7601 32.0334L93.0801 29.5036L104.003 23.0186L119.6 32.0283Z" fill="#141446"/>
<path d="M97.7601 32.0334L93.0801 29.5037V34.7577L97.7601 32.0334Z" fill="#A14474"/>
<path d="M88.3999 43.709L104 34.7577L119.6 43.709L104 52.7577L88.3999 43.709Z" fill="#141446"/>
<path d="M119.6 37.4968L104 28.3361V34.7577L119.6 43.709L119.6 37.4968Z" fill="#FF6492"/>
<path d="M93.0799 34.7577V29.5036L104.003 23.0186V16.7577L88.3999 25.8063V43.709L104 34.7577V28.3361L93.0799 34.7577Z" fill="#7A77FF"/>
<path d="M207.947 78.5853C207.976 68.549 193.697 60.3734 176.053 60.3246C158.409 60.2758 144.082 68.3723 144.053 78.4086C144.024 88.4449 158.303 96.6205 175.947 96.6693C193.591 96.7181 207.918 88.6217 207.947 78.5853Z" fill="white" fill-opacity="0.1"/>
<path d="M173.099 55.4496C165.879 59.5612 161.431 67.1592 161.431 75.3817V81.013C161.431 82.7012 162.278 84.3894 163.972 85.3541C167.451 87.3347 171.737 87.3347 175.216 85.3541L188.037 78.0532C189.731 77.0885 190.578 75.4003 190.578 73.7121V65.4034C190.578 56.5559 180.867 51.0258 173.099 55.4496Z" fill="url(#paint0_linear_1333_71729)"/>
<path d="M188.133 48.6183C188.133 55.1692 182.704 60.4794 176.007 60.4794C169.31 60.4794 163.881 55.1692 163.881 48.6183C163.881 42.0679 169.31 36.7577 176.007 36.7577C182.704 36.7577 188.133 42.0679 188.133 48.6183Z" fill="url(#paint1_linear_1333_71729)"/>
<path d="M63.9472 78.5853C63.9764 68.549 49.6968 60.3734 32.0528 60.3246C14.4089 60.2758 0.08197 68.3723 0.0528061 78.4086C0.0236421 88.4449 14.3032 96.6205 31.9472 96.6693C49.5911 96.7181 63.918 88.6217 63.9472 78.5853Z" fill="white" fill-opacity="0.1"/>
<path d="M29.0995 55.4495C21.8798 59.561 17.4319 67.1591 17.4319 75.3815V81.0129C17.4319 82.7011 18.2788 84.3893 19.9727 85.354C23.452 87.3346 27.7381 87.3346 31.2168 85.354L44.0379 78.0531C45.7318 77.0884 46.5787 75.4002 46.5787 73.712V65.4033C46.5787 56.5557 36.8678 51.0257 29.0995 55.4495Z" fill="url(#paint2_linear_1333_71729)"/>
<path d="M44.134 48.6183C44.134 55.1692 38.705 60.4794 32.008 60.4794C25.3111 60.4794 19.8821 55.1692 19.8821 48.6183C19.8821 42.0679 25.3111 36.7577 32.008 36.7577C38.705 36.7577 44.134 42.0679 44.134 48.6183Z" fill="url(#paint3_linear_1333_71729)"/>
<path d="M135.947 102.586C135.976 92.5498 121.697 84.3744 104.053 84.3256C86.4089 84.2768 72.082 92.373 72.0528 102.409C72.0236 112.445 86.3032 120.621 103.947 120.669C121.591 120.718 135.918 112.622 135.947 102.586Z" fill="white" fill-opacity="0.1"/>
<path d="M101.099 79.4491C93.8796 83.5605 89.4316 91.1583 89.4316 99.3806V105.012C89.4316 106.7 90.2786 108.388 91.9725 109.353C95.4518 111.333 99.7379 111.333 103.217 109.353L116.038 102.052C117.732 101.087 118.578 99.3992 118.578 97.7111V89.4026C118.578 80.5553 108.868 75.0254 101.099 79.4491Z" fill="url(#paint4_linear_1333_71729)"/>
<path d="M116.133 72.618C116.133 79.1687 110.704 84.4788 104.007 84.4788C97.3104 84.4788 91.8813 79.1687 91.8813 72.618C91.8813 66.0678 97.3104 60.7577 104.007 60.7577C110.704 60.7577 116.133 66.0678 116.133 72.618Z" fill="url(#paint5_linear_1333_71729)"/>
<defs>
<linearGradient id="paint0_linear_1333_71729" x1="176.005" y1="53.8927" x2="176.005" y2="86.8396" gradientUnits="userSpaceOnUse">
<stop stop-color="#404061"/>
<stop offset="1" stop-color="#8888A3"/>
</linearGradient>
<linearGradient id="paint1_linear_1333_71729" x1="176.007" y1="36.7577" x2="176.007" y2="60.4794" gradientUnits="userSpaceOnUse">
<stop stop-color="#404061"/>
<stop offset="1" stop-color="#8888A3"/>
</linearGradient>
<linearGradient id="paint2_linear_1333_71729" x1="32.0053" y1="53.8926" x2="32.0053" y2="86.8394" gradientUnits="userSpaceOnUse">
<stop stop-color="#404061"/>
<stop offset="1" stop-color="#8888A3"/>
</linearGradient>
<linearGradient id="paint3_linear_1333_71729" x1="32.008" y1="36.7577" x2="32.008" y2="60.4794" gradientUnits="userSpaceOnUse">
<stop stop-color="#404061"/>
<stop offset="1" stop-color="#8888A3"/>
</linearGradient>
<linearGradient id="paint4_linear_1333_71729" x1="104.005" y1="77.8922" x2="104.005" y2="110.838" gradientUnits="userSpaceOnUse">
<stop stop-color="#404061"/>
<stop offset="1" stop-color="#8888A3"/>
</linearGradient>
<linearGradient id="paint5_linear_1333_71729" x1="104.007" y1="60.7577" x2="104.007" y2="84.4788" gradientUnits="userSpaceOnUse">
<stop stop-color="#404061"/>
<stop offset="1" stop-color="#8888A3"/>
</linearGradient>
</defs>
</svg>
