<svg xmlns="http://www.w3.org/2000/svg" width="174" height="121" fill="none"><path fill="url(#a)" d="M52.467 115.859c-8.206 0-14.213-1.339-18.02-4.018-3.807-2.679-5.711-7.451-5.711-14.316 0-2.93.085-5.4.254-7.41.254-2.093.465-4.102.634-6.028.254-2.009.381-4.311.381-6.907 0-1.423-.508-2.804-1.523-4.144-1.015-1.34-2.75-2.47-5.203-3.39-2.453-.921-5.88-1.424-10.279-1.508V55.58c4.4-.083 7.826-.586 10.28-1.507 2.453-.92 4.187-2.05 5.202-3.39 1.015-1.34 1.523-2.721 1.523-4.145 0-2.595-.127-4.855-.38-6.781-.17-2.01-.381-4.019-.635-6.028-.17-2.093-.254-4.604-.254-7.535 0-6.949 1.904-11.72 5.71-14.316 3.808-2.68 9.815-4.019 18.021-4.019H63v11.303h-4.695c-3.215 0-5.669.209-7.36.628-1.693.335-2.877 1.088-3.554 2.26-.592 1.088-.889 2.721-.889 4.898 0 3.181.085 6.32.254 9.418.17 3.098.254 6.489.254 10.172 0 5.024-1.057 8.624-3.172 10.8-2.03 2.093-5.373 3.517-10.026 4.27v.503c4.653.753 7.995 2.218 10.026 4.395 2.115 2.093 3.172 5.651 3.172 10.674 0 3.6-.084 6.991-.254 10.172-.169 3.098-.254 6.238-.254 9.419 0 2.177.297 3.809.889 4.898.677 1.172 1.861 1.925 3.553 2.26 1.692.419 4.146.628 7.36.628H63v11.302H52.467Z"/><rect width="112" height="40" x="62" y="40.859" fill="#DA3466" rx="20"/><path fill="#fff" d="M84.336 67.08c2.72 0 5.02-1.42 6.16-3.48v-3.72h-6.18v1.88h4.06v1.42c-.8 1.2-2.16 2-3.94 2-2.88 0-4.86-2.1-4.86-4.94 0-2.78 1.92-4.86 4.74-4.86 1.72 0 3.02.78 3.94 2.08l1.54-1.26c-1.24-1.74-3.14-2.76-5.46-2.76-3.9 0-6.96 2.96-6.96 6.82 0 3.86 3.04 6.82 6.96 6.82Zm13.442-10.14c-1.12 0-2.16.48-2.86 1.38v-1.28h-1.96v9.82h2.1v-5.24c0-1.82 1.32-2.72 2.88-2.72h.64v-1.86c-.22-.06-.46-.1-.8-.1Zm6.264-.12c-1.66 0-3.12.66-4.14 2.1l1.22 1.24c.78-.92 1.58-1.46 2.72-1.46 1.34 0 2.1.74 2.1 2.1v.64h-2.78c-2.2 0-3.62 1.08-3.62 2.8 0 1.7 1.36 2.84 3.42 2.84 1.36 0 2.44-.48 3.14-1.32v1.1h1.96v-5.94c0-2.72-1.66-4.1-4.02-4.1Zm-.64 8.64c-.96 0-1.72-.44-1.72-1.3 0-.8.62-1.2 1.74-1.2h2.52v.18c0 1.34-1.16 2.32-2.54 2.32Zm12.963-8.64c-1.44 0-2.7.58-3.42 1.6v-1.38h-1.96v13.42h2.1v-4.8c.76.9 1.94 1.42 3.28 1.42 2.8 0 4.82-2.2 4.82-5.14 0-2.92-2.02-5.12-4.82-5.12Zm-.34 8.34c-1.48 0-2.96-1-2.96-3.22 0-2.24 1.5-3.2 2.96-3.2 1.7 0 3 1.32 3 3.22 0 1.9-1.32 3.2-3 3.2Zm12.517-8.34c-1.2 0-2.18.44-2.84 1.2v-6.16h-2.1v15h2.1v-5.84c0-1.34.94-2.28 2.24-2.28 1.3 0 2.14.92 2.14 2.28v5.84h2.1v-6.14c0-2.3-1.38-3.9-3.64-3.9Zm24.124 12.46c-3.1 0-5.34-1.16-7.14-3.54a6.704 6.704 0 0 0 2.78-5.48c0-3.86-3.12-6.82-6.94-6.82-3.84 0-6.92 2.96-6.92 6.82 0 3.86 3.06 6.82 6.92 6.82.84 0 1.66-.14 2.42-.42 2.06 2.92 5.04 4.44 8.54 4.44.84 0 1.58-.1 2.22-.22V69.2c-.68.04-1.36.08-1.88.08Zm-16.02-9.04c0-2.8 2-4.86 4.72-4.86 2.74 0 4.76 2.08 4.76 4.88 0 2.82-2.04 4.88-4.74 4.88-2.74 0-4.74-2.06-4.74-4.9Zm14.205 6.62h8.16v-1.9h-6.04v-11.3h-2.12v13.2Z"/><defs><linearGradient id="a" x1="38.37" x2="38.37" y1="-36.046" y2="152.885" gradientUnits="userSpaceOnUse"><stop offset=".544" stop-color="#453659"/><stop offset="1" stop-color="#453659" stop-opacity="0"/></linearGradient></defs></svg>