<svg width="532" height="400" viewBox="0 0 532 400" fill="none" xmlns="http://www.w3.org/2000/svg">
<rect x="39" y="60" width="454" height="279" rx="16" fill="white" fill-opacity="0.08"/>
<path d="M75.88 106.192C75.112 106.192 74.4027 106.053 73.752 105.776C73.112 105.488 72.552 105.109 72.072 104.64L72.872 103.712C73.2667 104.107 73.7253 104.427 74.248 104.672C74.7813 104.907 75.3467 105.024 75.944 105.024C76.6693 105.024 77.2293 104.869 77.624 104.56C78.0293 104.251 78.232 103.851 78.232 103.36C78.232 102.987 78.1467 102.688 77.976 102.464C77.816 102.24 77.592 102.053 77.304 101.904C77.0267 101.755 76.7067 101.605 76.344 101.456L74.84 100.8C74.488 100.651 74.136 100.464 73.784 100.24C73.4427 100.016 73.1547 99.7333 72.92 99.392C72.6853 99.04 72.568 98.608 72.568 98.096C72.568 97.5627 72.712 97.088 73 96.672C73.2987 96.2453 73.7093 95.9147 74.232 95.68C74.7547 95.4347 75.3467 95.312 76.008 95.312C76.6693 95.312 77.2773 95.4347 77.832 95.68C78.3867 95.9147 78.856 96.224 79.24 96.608L78.536 97.472C78.1947 97.1627 77.816 96.9227 77.4 96.752C76.984 96.5707 76.504 96.48 75.96 96.48C75.352 96.48 74.8613 96.6187 74.488 96.896C74.1147 97.1627 73.928 97.536 73.928 98.016C73.928 98.3467 74.0187 98.6187 74.2 98.832C74.392 99.0453 74.632 99.2213 74.92 99.36C75.208 99.4987 75.5013 99.632 75.8 99.76L77.272 100.4C77.7093 100.571 78.104 100.779 78.456 101.024C78.808 101.259 79.0853 101.552 79.288 101.904C79.4907 102.256 79.592 102.688 79.592 103.2C79.592 103.755 79.4427 104.261 79.144 104.72C78.8453 105.168 78.4187 105.525 77.864 105.792C77.3093 106.059 76.648 106.192 75.88 106.192ZM82.4178 106V95.504H88.9138V96.624H83.7618V99.92H88.1138V101.056H83.7618V104.864H89.0738V106H82.4178ZM92.3315 106V95.504H93.6435V104.864H98.8435V106H92.3315ZM101.605 106V95.504H108.101V96.624H102.949V99.92H107.301V101.056H102.949V104.864H108.261V106H101.605ZM114.991 106.192C114.34 106.192 113.738 106.069 113.183 105.824C112.628 105.579 112.143 105.227 111.727 104.768C111.311 104.299 110.986 103.728 110.751 103.056C110.527 102.373 110.415 101.605 110.415 100.752C110.415 99.632 110.618 98.6667 111.023 97.856C111.428 97.0347 111.983 96.4053 112.687 95.968C113.391 95.5307 114.202 95.312 115.119 95.312C115.748 95.312 116.308 95.4453 116.799 95.712C117.29 95.968 117.684 96.2613 117.983 96.592L117.231 97.44C116.964 97.1413 116.655 96.9067 116.303 96.736C115.951 96.5653 115.556 96.48 115.119 96.48C114.447 96.48 113.86 96.656 113.359 97.008C112.868 97.3493 112.484 97.8347 112.207 98.464C111.93 99.0933 111.791 99.8453 111.791 100.72C111.791 101.605 111.93 102.368 112.207 103.008C112.484 103.648 112.868 104.144 113.359 104.496C113.86 104.848 114.447 105.024 115.119 105.024C115.599 105.024 116.031 104.923 116.415 104.72C116.799 104.517 117.156 104.229 117.487 103.856L118.239 104.672C117.834 105.152 117.364 105.525 116.831 105.792C116.298 106.059 115.684 106.192 114.991 106.192ZM123.097 106V96.624H119.641V95.504H127.897V96.624H124.441V106H123.097ZM320.95 130L324.486 119.504H325.99L329.526 130H328.118L326.294 124.128C326.112 123.541 325.931 122.96 325.75 122.384C325.579 121.797 325.414 121.2 325.254 120.592H325.19C325.019 121.2 324.848 121.797 324.678 122.384C324.507 122.96 324.331 123.541 324.15 124.128L322.31 130H320.95ZM322.806 126.8V125.728H327.622V126.8H322.806ZM334.911 130.192C334.143 130.192 333.434 130.053 332.783 129.776C332.143 129.488 331.583 129.109 331.103 128.64L331.903 127.712C332.298 128.107 332.757 128.427 333.279 128.672C333.813 128.907 334.378 129.024 334.975 129.024C335.701 129.024 336.261 128.869 336.655 128.56C337.061 128.251 337.263 127.851 337.263 127.36C337.263 126.987 337.178 126.688 337.007 126.464C336.847 126.24 336.623 126.053 336.335 125.904C336.058 125.755 335.738 125.605 335.375 125.456L333.871 124.8C333.519 124.651 333.167 124.464 332.815 124.24C332.474 124.016 332.186 123.733 331.951 123.392C331.717 123.04 331.599 122.608 331.599 122.096C331.599 121.563 331.743 121.088 332.031 120.672C332.33 120.245 332.741 119.915 333.263 119.68C333.786 119.435 334.378 119.312 335.039 119.312C335.701 119.312 336.309 119.435 336.863 119.68C337.418 119.915 337.887 120.224 338.271 120.608L337.567 121.472C337.226 121.163 336.847 120.923 336.431 120.752C336.015 120.571 335.535 120.48 334.991 120.48C334.383 120.48 333.893 120.619 333.519 120.896C333.146 121.163 332.959 121.536 332.959 122.016C332.959 122.347 333.05 122.619 333.231 122.832C333.423 123.045 333.663 123.221 333.951 123.36C334.239 123.499 334.533 123.632 334.831 123.76L336.303 124.4C336.741 124.571 337.135 124.779 337.487 125.024C337.839 125.259 338.117 125.552 338.319 125.904C338.522 126.256 338.623 126.688 338.623 127.2C338.623 127.755 338.474 128.261 338.175 128.72C337.877 129.168 337.45 129.525 336.895 129.792C336.341 130.059 335.679 130.192 334.911 130.192ZM91.3395 154V143.504H92.9715L94.4435 147.984L94.9555 149.68H95.0195L95.5155 147.984L97.0035 143.504H98.6355V154H97.3555V148.752C97.3555 148.496 97.3608 148.203 97.3715 147.872C97.3928 147.541 97.4142 147.2 97.4355 146.848C97.4675 146.496 97.4942 146.165 97.5155 145.856C97.5475 145.536 97.5688 145.264 97.5795 145.04H97.5315L96.9395 147.088L95.4355 151.216H94.4755L93.0035 147.088L92.3955 145.04H92.3635C92.3848 145.264 92.4062 145.536 92.4275 145.856C92.4595 146.165 92.4862 146.496 92.5075 146.848C92.5288 147.2 92.5448 147.541 92.5555 147.872C92.5768 148.203 92.5875 148.496 92.5875 148.752V154H91.3395ZM101.605 154V143.504H108.101V144.624H102.949V147.92H107.301V149.056H102.949V152.864H108.261V154H101.605ZM109.887 154L113.423 143.504H114.927L118.463 154H117.055L115.231 148.128C115.05 147.541 114.868 146.96 114.687 146.384C114.516 145.797 114.351 145.2 114.191 144.592H114.127C113.956 145.2 113.786 145.797 113.615 146.384C113.444 146.96 113.268 147.541 113.087 148.128L111.247 154H109.887ZM111.743 150.8V149.728H116.559V150.8H111.743ZM123.849 154.192C123.081 154.192 122.371 154.053 121.721 153.776C121.081 153.488 120.521 153.109 120.041 152.64L120.841 151.712C121.235 152.107 121.694 152.427 122.217 152.672C122.75 152.907 123.315 153.024 123.913 153.024C124.638 153.024 125.198 152.869 125.593 152.56C125.998 152.251 126.201 151.851 126.201 151.36C126.201 150.987 126.115 150.688 125.945 150.464C125.785 150.24 125.561 150.053 125.273 149.904C124.995 149.755 124.675 149.605 124.313 149.456L122.809 148.8C122.457 148.651 122.105 148.464 121.753 148.24C121.411 148.016 121.123 147.733 120.889 147.392C120.654 147.04 120.537 146.608 120.537 146.096C120.537 145.563 120.681 145.088 120.969 144.672C121.267 144.245 121.678 143.915 122.201 143.68C122.723 143.435 123.315 143.312 123.977 143.312C124.638 143.312 125.246 143.435 125.801 143.68C126.355 143.915 126.825 144.224 127.209 144.608L126.505 145.472C126.163 145.163 125.785 144.923 125.369 144.752C124.953 144.571 124.473 144.48 123.929 144.48C123.321 144.48 122.83 144.619 122.457 144.896C122.083 145.163 121.897 145.536 121.897 146.016C121.897 146.347 121.987 146.619 122.169 146.832C122.361 147.045 122.601 147.221 122.889 147.36C123.177 147.499 123.47 147.632 123.769 147.76L125.241 148.4C125.678 148.571 126.073 148.779 126.425 149.024C126.777 149.259 127.054 149.552 127.257 149.904C127.459 150.256 127.561 150.688 127.561 151.2C127.561 151.755 127.411 152.261 127.113 152.72C126.814 153.168 126.387 153.525 125.833 153.792C125.278 154.059 124.617 154.192 123.849 154.192ZM133.379 154.192C132.867 154.192 132.392 154.117 131.955 153.968C131.528 153.808 131.155 153.568 130.835 153.248C130.515 152.917 130.264 152.485 130.083 151.952C129.912 151.419 129.827 150.779 129.827 150.032V143.504H131.171V150.064C131.171 150.789 131.267 151.371 131.459 151.808C131.651 152.235 131.912 152.544 132.243 152.736C132.584 152.928 132.963 153.024 133.379 153.024C133.805 153.024 134.184 152.928 134.515 152.736C134.856 152.544 135.123 152.235 135.315 151.808C135.507 151.371 135.603 150.789 135.603 150.064V143.504H136.899V150.032C136.899 150.779 136.808 151.419 136.627 151.952C136.456 152.485 136.211 152.917 135.891 153.248C135.581 153.568 135.213 153.808 134.787 153.968C134.36 154.117 133.891 154.192 133.379 154.192ZM139.756 154V143.504H143.02C143.735 143.504 144.364 143.6 144.908 143.792C145.463 143.973 145.895 144.283 146.204 144.72C146.524 145.147 146.684 145.723 146.684 146.448C146.684 147.152 146.524 147.733 146.204 148.192C145.895 148.651 145.463 148.997 144.908 149.232C144.364 149.456 143.735 149.568 143.02 149.568H141.084V154H139.756ZM141.084 148.48H142.828C143.65 148.48 144.274 148.315 144.7 147.984C145.138 147.643 145.356 147.131 145.356 146.448C145.356 145.765 145.138 145.285 144.7 145.008C144.274 144.72 143.65 144.576 142.828 144.576H141.084V148.48ZM142.748 149.2L143.804 148.496L147.004 154H145.484L142.748 149.2ZM149.574 154V143.504H156.07V144.624H150.918V147.92H155.27V149.056H150.918V152.864H156.23V154H149.574ZM73.128 178V167.504H79.576V168.624H74.472V172.176H78.792V173.296H74.472V178H73.128ZM82.1938 178V167.504H85.4578C86.1724 167.504 86.8018 167.6 87.3458 167.792C87.9004 167.973 88.3324 168.283 88.6418 168.72C88.9618 169.147 89.1218 169.723 89.1218 170.448C89.1218 171.152 88.9618 171.733 88.6418 172.192C88.3324 172.651 87.9004 172.997 87.3458 173.232C86.8018 173.456 86.1724 173.568 85.4578 173.568H83.5218V178H82.1938ZM83.5218 172.48H85.2658C86.0871 172.48 86.7111 172.315 87.1378 171.984C87.5751 171.643 87.7938 171.131 87.7938 170.448C87.7938 169.765 87.5751 169.285 87.1378 169.008C86.7111 168.72 86.0871 168.576 85.2658 168.576H83.5218V172.48ZM85.1858 173.2L86.2418 172.496L89.4418 178H87.9218L85.1858 173.2ZM94.9875 178.192C94.1982 178.192 93.4995 177.973 92.8915 177.536C92.2835 177.099 91.8088 176.475 91.4675 175.664C91.1262 174.843 90.9555 173.856 90.9555 172.704C90.9555 171.573 91.1262 170.608 91.4675 169.808C91.8088 168.997 92.2835 168.379 92.8915 167.952C93.4995 167.525 94.1982 167.312 94.9875 167.312C95.7768 167.312 96.4755 167.525 97.0835 167.952C97.6915 168.379 98.1662 168.997 98.5075 169.808C98.8488 170.608 99.0195 171.573 99.0195 172.704C99.0195 173.856 98.8488 174.843 98.5075 175.664C98.1662 176.475 97.6915 177.099 97.0835 177.536C96.4755 177.973 95.7768 178.192 94.9875 178.192ZM94.9875 177.024C95.5208 177.024 95.9848 176.853 96.3795 176.512C96.7848 176.16 97.0942 175.664 97.3075 175.024C97.5315 174.373 97.6435 173.6 97.6435 172.704C97.6435 171.819 97.5315 171.061 97.3075 170.432C97.0942 169.803 96.7848 169.323 96.3795 168.992C95.9848 168.651 95.5208 168.48 94.9875 168.48C94.4542 168.48 93.9848 168.651 93.5795 168.992C93.1848 169.323 92.8755 169.803 92.6515 170.432C92.4382 171.061 92.3315 171.819 92.3315 172.704C92.3315 173.6 92.4382 174.373 92.6515 175.024C92.8755 175.664 93.1848 176.16 93.5795 176.512C93.9848 176.853 94.4542 177.024 94.9875 177.024ZM100.933 178V167.504H102.565L104.037 171.984L104.549 173.68H104.613L105.109 171.984L106.597 167.504H108.229V178H106.949V172.752C106.949 172.496 106.955 172.203 106.965 171.872C106.987 171.541 107.008 171.2 107.029 170.848C107.061 170.496 107.088 170.165 107.109 169.856C107.141 169.536 107.163 169.264 107.173 169.04H107.125L106.533 171.088L105.029 175.216H104.069L102.597 171.088L101.989 169.04H101.957C101.979 169.264 102 169.536 102.021 169.856C102.053 170.165 102.08 170.496 102.101 170.848C102.123 171.2 102.139 171.541 102.149 171.872C102.171 172.203 102.181 172.496 102.181 172.752V178H100.933ZM72.76 202L71.16 191.488H72.664L73.432 198.08C73.464 198.368 73.4907 198.635 73.512 198.88C73.544 199.115 73.5707 199.36 73.592 199.616C73.6133 199.861 73.6293 200.16 73.64 200.512H73.688C73.752 200.16 73.8107 199.861 73.864 199.616C73.9173 199.36 73.9707 199.115 74.024 198.88C74.0773 198.645 74.136 198.384 74.2 198.096L75.224 194.192H76.504L77.496 198.096C77.5707 198.384 77.6347 198.645 77.688 198.88C77.7413 199.115 77.7893 199.36 77.832 199.616C77.8853 199.861 77.944 200.16 78.008 200.512H78.072C78.0933 200.16 78.1093 199.861 78.12 199.616C78.1413 199.36 78.1627 199.115 78.184 198.88C78.2053 198.645 78.232 198.384 78.264 198.096L79 191.488H80.44L78.904 202H77.24L76.216 197.776C76.1413 197.456 76.072 197.141 76.008 196.832C75.944 196.523 75.8853 196.208 75.832 195.888H75.784C75.7307 196.208 75.6773 196.523 75.624 196.832C75.5707 197.141 75.5013 197.456 75.416 197.776L74.392 202H72.76ZM81.8578 202V191.504H83.2018V195.904H87.5858V191.504H88.9298V202H87.5858V197.056H83.2018V202H81.8578ZM92.0115 202V191.504H98.5075V192.624H93.3555V195.92H97.7075V197.056H93.3555V200.864H98.6675V202H92.0115ZM101.381 202V191.504H104.645C105.36 191.504 105.989 191.6 106.533 191.792C107.088 191.973 107.52 192.283 107.829 192.72C108.149 193.147 108.309 193.723 108.309 194.448C108.309 195.152 108.149 195.733 107.829 196.192C107.52 196.651 107.088 196.997 106.533 197.232C105.989 197.456 105.36 197.568 104.645 197.568H102.709V202H101.381ZM102.709 196.48H104.453C105.275 196.48 105.899 196.315 106.325 195.984C106.763 195.643 106.981 195.131 106.981 194.448C106.981 193.765 106.763 193.285 106.325 193.008C105.899 192.72 105.275 192.576 104.453 192.576H102.709V196.48ZM104.373 197.2L105.429 196.496L108.629 202H107.109L104.373 197.2ZM111.199 202V191.504H117.695V192.624H112.543V195.92H116.895V197.056H112.543V200.864H117.855V202H111.199ZM178.243 201.232V199.968L183.059 196.72V196.656L178.243 193.408V192.144L184.211 196.192V197.184L178.243 201.232ZM187.485 195.504V194.512H194.365V195.504H187.485ZM187.485 198.928V197.936H194.365V198.928H187.485ZM330.543 202L334.079 191.504H335.583L339.119 202H337.711L335.887 196.128C335.706 195.541 335.525 194.96 335.343 194.384C335.173 193.797 335.007 193.2 334.847 192.592H334.783C334.613 193.2 334.442 193.797 334.271 194.384C334.101 194.96 333.925 195.541 333.743 196.128L331.903 202H330.543ZM332.399 198.8V197.728H337.215V198.8H332.399ZM340.937 202V191.504H342.409L345.769 198.096L346.777 200.272H346.809C346.788 199.749 346.75 199.205 346.697 198.64C346.654 198.064 346.633 197.499 346.633 196.944V191.504H347.913V202H346.441L343.081 195.408L342.073 193.232H342.041C342.062 193.765 342.094 194.309 342.137 194.864C342.19 195.419 342.217 195.968 342.217 196.512V202H340.937ZM350.611 202V191.504H353.203C354.259 191.504 355.144 191.707 355.859 192.112C356.584 192.507 357.133 193.093 357.507 193.872C357.88 194.651 358.067 195.595 358.067 196.704C358.067 197.824 357.88 198.779 357.507 199.568C357.144 200.357 356.605 200.96 355.891 201.376C355.176 201.792 354.301 202 353.267 202H350.611ZM351.939 200.912H353.107C353.907 200.912 354.568 200.747 355.091 200.416C355.624 200.075 356.024 199.595 356.291 198.976C356.557 198.347 356.691 197.589 356.691 196.704C356.691 195.829 356.557 195.083 356.291 194.464C356.024 193.845 355.624 193.381 355.091 193.072C354.568 192.752 353.907 192.592 353.107 192.592H351.939V200.912ZM424.263 201.232L418.295 197.184V196.192L424.263 192.144V193.408L419.447 196.656V196.72L424.263 199.968V201.232ZM76.392 250.192C75.5173 250.192 74.7387 249.979 74.056 249.552C73.3733 249.115 72.8347 248.491 72.44 247.68C72.0453 246.869 71.848 245.893 71.848 244.752C71.848 243.621 72.0453 242.651 72.44 241.84C72.8453 241.019 73.3947 240.395 74.088 239.968C74.792 239.531 75.5973 239.312 76.504 239.312C77.1973 239.312 77.7787 239.451 78.248 239.728C78.7173 239.995 79.1013 240.283 79.4 240.592L78.648 241.44C78.392 241.163 78.0933 240.933 77.752 240.752C77.4213 240.571 77.0053 240.48 76.504 240.48C75.8533 240.48 75.2827 240.656 74.792 241.008C74.3013 241.349 73.9173 241.835 73.64 242.464C73.3733 243.093 73.24 243.845 73.24 244.72C73.24 245.605 73.368 246.368 73.624 247.008C73.88 247.648 74.248 248.144 74.728 248.496C75.208 248.848 75.7893 249.024 76.472 249.024C76.8347 249.024 77.1813 248.971 77.512 248.864C77.8427 248.747 78.104 248.592 78.296 248.4V245.664H76.2V244.56H79.528V248.976C79.1973 249.317 78.76 249.605 78.216 249.84C77.6827 250.075 77.0747 250.192 76.392 250.192ZM82.1938 250V239.504H85.4578C86.1724 239.504 86.8018 239.6 87.3458 239.792C87.9004 239.973 88.3324 240.283 88.6418 240.72C88.9618 241.147 89.1218 241.723 89.1218 242.448C89.1218 243.152 88.9618 243.733 88.6418 244.192C88.3324 244.651 87.9004 244.997 87.3458 245.232C86.8018 245.456 86.1724 245.568 85.4578 245.568H83.5218V250H82.1938ZM83.5218 244.48H85.2658C86.0871 244.48 86.7111 244.315 87.1378 243.984C87.5751 243.643 87.7938 243.131 87.7938 242.448C87.7938 241.765 87.5751 241.285 87.1378 241.008C86.7111 240.72 86.0871 240.576 85.2658 240.576H83.5218V244.48ZM85.1858 245.2L86.2418 244.496L89.4418 250H87.9218L85.1858 245.2ZM94.9875 250.192C94.1982 250.192 93.4995 249.973 92.8915 249.536C92.2835 249.099 91.8088 248.475 91.4675 247.664C91.1262 246.843 90.9555 245.856 90.9555 244.704C90.9555 243.573 91.1262 242.608 91.4675 241.808C91.8088 240.997 92.2835 240.379 92.8915 239.952C93.4995 239.525 94.1982 239.312 94.9875 239.312C95.7768 239.312 96.4755 239.525 97.0835 239.952C97.6915 240.379 98.1662 240.997 98.5075 241.808C98.8488 242.608 99.0195 243.573 99.0195 244.704C99.0195 245.856 98.8488 246.843 98.5075 247.664C98.1662 248.475 97.6915 249.099 97.0835 249.536C96.4755 249.973 95.7768 250.192 94.9875 250.192ZM94.9875 249.024C95.5208 249.024 95.9848 248.853 96.3795 248.512C96.7848 248.16 97.0942 247.664 97.3075 247.024C97.5315 246.373 97.6435 245.6 97.6435 244.704C97.6435 243.819 97.5315 243.061 97.3075 242.432C97.0942 241.803 96.7848 241.323 96.3795 240.992C95.9848 240.651 95.5208 240.48 94.9875 240.48C94.4542 240.48 93.9848 240.651 93.5795 240.992C93.1848 241.323 92.8755 241.803 92.6515 242.432C92.4382 243.061 92.3315 243.819 92.3315 244.704C92.3315 245.6 92.4382 246.373 92.6515 247.024C92.8755 247.664 93.1848 248.16 93.5795 248.512C93.9848 248.853 94.4542 249.024 94.9875 249.024ZM104.597 250.192C104.085 250.192 103.611 250.117 103.173 249.968C102.747 249.808 102.373 249.568 102.053 249.248C101.733 248.917 101.483 248.485 101.301 247.952C101.131 247.419 101.045 246.779 101.045 246.032V239.504H102.389V246.064C102.389 246.789 102.485 247.371 102.677 247.808C102.869 248.235 103.131 248.544 103.461 248.736C103.803 248.928 104.181 249.024 104.597 249.024C105.024 249.024 105.403 248.928 105.733 248.736C106.075 248.544 106.341 248.235 106.533 247.808C106.725 247.371 106.821 246.789 106.821 246.064V239.504H108.117V246.032C108.117 246.779 108.027 247.419 107.845 247.952C107.675 248.485 107.429 248.917 107.109 249.248C106.8 249.568 106.432 249.808 106.005 249.968C105.579 250.117 105.109 250.192 104.597 250.192ZM111.007 250V239.504H114.175C114.954 239.504 115.631 239.605 116.207 239.808C116.794 240 117.247 240.32 117.567 240.768C117.898 241.216 118.063 241.824 118.063 242.592C118.063 243.328 117.898 243.936 117.567 244.416C117.247 244.885 116.794 245.243 116.207 245.488C115.62 245.723 114.943 245.84 114.175 245.84H112.335V250H111.007ZM112.335 244.752H114.015C114.932 244.752 115.61 244.576 116.047 244.224C116.495 243.872 116.719 243.328 116.719 242.592C116.719 241.835 116.495 241.312 116.047 241.024C115.599 240.725 114.922 240.576 114.015 240.576H112.335V244.752ZM130.147 250V239.504H133.123C133.837 239.504 134.461 239.589 134.995 239.76C135.539 239.931 135.96 240.203 136.259 240.576C136.568 240.949 136.723 241.445 136.723 242.064C136.723 242.587 136.573 243.061 136.275 243.488C135.976 243.904 135.512 244.192 134.883 244.352V244.416C135.651 244.533 136.248 244.8 136.675 245.216C137.101 245.632 137.315 246.203 137.315 246.928C137.315 247.611 137.149 248.181 136.819 248.64C136.488 249.099 136.024 249.44 135.427 249.664C134.84 249.888 134.152 250 133.363 250H130.147ZM131.475 243.92H132.899C133.795 243.92 134.435 243.776 134.819 243.488C135.213 243.2 135.411 242.763 135.411 242.176C135.411 241.611 135.203 241.211 134.787 240.976C134.381 240.741 133.773 240.624 132.963 240.624H131.475V243.92ZM131.475 248.88H133.171C134.067 248.88 134.76 248.725 135.251 248.416C135.752 248.096 136.003 247.579 136.003 246.864C136.003 246.213 135.757 245.749 135.267 245.472C134.787 245.184 134.088 245.04 133.171 245.04H131.475V248.88ZM142.284 250V246.256L138.764 239.504H140.172L141.756 242.624C141.959 243.019 142.156 243.419 142.348 243.824C142.54 244.229 142.743 244.645 142.956 245.072H143.02C143.234 244.645 143.442 244.229 143.644 243.824C143.847 243.419 144.05 243.013 144.252 242.608L145.772 239.504H147.148L143.628 246.256V250H142.284Z" fill="white"/>
<path d="M269.179 130.192C268.422 130.192 267.824 130.059 267.387 129.792C266.95 129.515 266.635 129.136 266.443 128.656C266.262 128.176 266.171 127.616 266.171 126.976V123.296H263.979V122.304L266.219 122.224L266.395 119.728H267.483V122.224H271.307V123.296H267.483V126.992C267.483 127.451 267.542 127.84 267.659 128.16C267.776 128.48 267.979 128.72 268.267 128.88C268.555 129.04 268.95 129.12 269.451 129.12C269.824 129.12 270.16 129.088 270.459 129.024C270.758 128.96 271.046 128.875 271.323 128.768L271.611 129.728C271.259 129.856 270.886 129.963 270.491 130.048C270.107 130.144 269.67 130.192 269.179 130.192ZM277.525 130V123.296H273.909V122.224H278.837V130H277.525ZM278.037 120.592C277.738 120.592 277.487 120.501 277.285 120.32C277.082 120.128 276.981 119.877 276.981 119.568C276.981 119.259 277.082 119.013 277.285 118.832C277.487 118.64 277.738 118.544 278.037 118.544C278.335 118.544 278.586 118.64 278.789 118.832C278.991 119.013 279.093 119.259 279.093 119.568C279.093 119.877 278.991 120.128 278.789 120.32C278.586 120.501 278.335 120.592 278.037 120.592ZM282.991 130V122.224H284.047L284.159 123.248H284.191C284.393 122.885 284.628 122.592 284.895 122.368C285.161 122.144 285.519 122.032 285.967 122.032C286.351 122.032 286.665 122.144 286.911 122.368C287.156 122.592 287.332 122.928 287.439 123.376C287.663 122.96 287.908 122.635 288.175 122.4C288.452 122.155 288.815 122.032 289.263 122.032C289.807 122.032 290.228 122.24 290.527 122.656C290.836 123.061 290.991 123.653 290.991 124.432V130H289.679V124.528C289.679 123.621 289.401 123.168 288.847 123.168C288.58 123.168 288.356 123.269 288.175 123.472C288.004 123.664 287.812 123.963 287.599 124.368V130H286.383V124.528C286.383 124.08 286.319 123.744 286.191 123.52C286.073 123.285 285.871 123.168 285.583 123.168C285.316 123.168 285.081 123.269 284.879 123.472C284.687 123.664 284.495 123.963 284.303 124.368V130H282.991ZM296.936 130.192C296.158 130.192 295.448 130.032 294.808 129.712C294.179 129.392 293.678 128.928 293.304 128.32C292.931 127.701 292.744 126.96 292.744 126.096C292.744 125.253 292.931 124.528 293.304 123.92C293.678 123.312 294.163 122.848 294.76 122.528C295.368 122.197 296.019 122.032 296.712 122.032C297.459 122.032 298.094 122.187 298.616 122.496C299.15 122.795 299.555 123.216 299.832 123.76C300.12 124.304 300.264 124.944 300.264 125.68C300.264 125.829 300.259 125.973 300.248 126.112C300.238 126.251 300.222 126.373 300.2 126.48H293.624V125.456H299.416L299.08 125.824C299.08 124.907 298.867 124.219 298.44 123.76C298.024 123.301 297.459 123.072 296.744 123.072C296.264 123.072 295.816 123.189 295.4 123.424C294.995 123.659 294.67 124 294.424 124.448C294.179 124.896 294.056 125.445 294.056 126.096C294.056 126.768 294.19 127.328 294.456 127.776C294.723 128.224 295.086 128.565 295.544 128.8C296.003 129.024 296.52 129.136 297.096 129.136C297.566 129.136 297.987 129.072 298.36 128.944C298.744 128.805 299.112 128.624 299.464 128.4L299.944 129.264C299.56 129.52 299.118 129.739 298.616 129.92C298.126 130.101 297.566 130.192 296.936 130.192ZM353.555 130.192C352.541 130.192 351.725 129.84 351.107 129.136C350.488 128.421 350.179 127.419 350.179 126.128C350.179 125.285 350.344 124.56 350.675 123.952C351.016 123.333 351.453 122.859 351.987 122.528C352.531 122.197 353.107 122.032 353.715 122.032C354.173 122.032 354.589 122.123 354.963 122.304C355.347 122.475 355.704 122.72 356.035 123.04H356.083L356.019 121.6V118.608H357.331V130H356.243L356.131 128.976H356.083C355.773 129.307 355.395 129.595 354.947 129.84C354.509 130.075 354.045 130.192 353.555 130.192ZM353.827 129.088C354.211 129.088 354.584 128.992 354.947 128.8C355.309 128.597 355.667 128.304 356.019 127.92V124.048C355.667 123.717 355.32 123.483 354.979 123.344C354.648 123.205 354.312 123.136 353.971 123.136C353.523 123.136 353.112 123.264 352.739 123.52C352.376 123.765 352.083 124.112 351.859 124.56C351.645 124.997 351.539 125.515 351.539 126.112C351.539 127.04 351.741 127.771 352.147 128.304C352.552 128.827 353.112 129.088 353.827 129.088ZM362.749 130.192C362.269 130.192 361.826 130.107 361.421 129.936C361.015 129.755 360.695 129.499 360.461 129.168C360.226 128.837 360.109 128.443 360.109 127.984C360.109 127.109 360.546 126.448 361.421 126C362.295 125.541 363.735 125.232 365.741 125.072C365.73 124.72 365.655 124.395 365.517 124.096C365.389 123.797 365.175 123.563 364.877 123.392C364.578 123.211 364.178 123.12 363.677 123.12C363.346 123.12 363.015 123.168 362.685 123.264C362.365 123.349 362.055 123.467 361.757 123.616C361.469 123.755 361.202 123.899 360.957 124.048L360.445 123.152C360.701 122.981 361.01 122.811 361.373 122.64C361.746 122.459 362.146 122.315 362.573 122.208C362.999 122.091 363.442 122.032 363.901 122.032C364.615 122.032 365.202 122.165 365.661 122.432C366.13 122.699 366.477 123.072 366.701 123.552C366.935 124.021 367.053 124.581 367.053 125.232V130H365.981L365.869 128.944H365.821C365.394 129.285 364.914 129.579 364.381 129.824C363.847 130.069 363.303 130.192 362.749 130.192ZM363.101 129.136C363.549 129.136 363.991 129.035 364.429 128.832C364.866 128.629 365.303 128.347 365.741 127.984V125.936C364.631 126.032 363.757 126.165 363.117 126.336C362.487 126.507 362.039 126.725 361.773 126.992C361.517 127.248 361.389 127.547 361.389 127.888C361.389 128.176 361.469 128.416 361.629 128.608C361.789 128.789 361.997 128.923 362.253 129.008C362.519 129.093 362.802 129.136 363.101 129.136ZM370.502 133.344C370.332 133.344 370.15 133.328 369.958 133.296C369.777 133.264 369.617 133.227 369.478 133.184L369.75 132.144C369.857 132.176 369.969 132.203 370.086 132.224C370.214 132.245 370.337 132.256 370.454 132.256C370.998 132.256 371.441 132.096 371.782 131.776C372.124 131.467 372.39 131.072 372.582 130.592L372.822 130.016L369.19 122.224H370.518L372.422 126.528C372.572 126.869 372.726 127.237 372.886 127.632C373.057 128.016 373.222 128.4 373.382 128.784H373.446C373.585 128.411 373.724 128.032 373.862 127.648C374.012 127.253 374.15 126.88 374.278 126.528L375.974 122.224H377.222L373.798 130.64C373.606 131.152 373.366 131.611 373.078 132.016C372.79 132.432 372.433 132.757 372.006 132.992C371.59 133.227 371.089 133.344 370.502 133.344ZM168.762 154L167.066 146.224H168.378L169.306 150.736C169.38 151.099 169.444 151.456 169.498 151.808C169.562 152.149 169.615 152.507 169.658 152.88H169.722C169.775 152.507 169.839 152.149 169.914 151.808C169.999 151.456 170.084 151.099 170.17 150.736L171.13 146.704H172.442L173.37 150.736C173.455 151.099 173.546 151.456 173.642 151.808C173.738 152.149 173.807 152.507 173.85 152.88H173.914C173.978 152.507 174.031 152.149 174.074 151.808C174.127 151.456 174.191 151.099 174.266 150.736L175.194 146.224H176.41L174.746 154H173.05L172.154 150.288C172.09 150.011 172.026 149.68 171.962 149.296C171.898 148.912 171.834 148.475 171.77 147.984H171.706C171.642 148.475 171.578 148.912 171.514 149.296C171.45 149.68 171.386 150.011 171.322 150.288L170.458 154H168.762ZM181.811 154.192C181.033 154.192 180.323 154.032 179.683 153.712C179.054 153.392 178.553 152.928 178.179 152.32C177.806 151.701 177.619 150.96 177.619 150.096C177.619 149.253 177.806 148.528 178.179 147.92C178.553 147.312 179.038 146.848 179.635 146.528C180.243 146.197 180.894 146.032 181.587 146.032C182.334 146.032 182.969 146.187 183.491 146.496C184.025 146.795 184.43 147.216 184.707 147.76C184.995 148.304 185.139 148.944 185.139 149.68C185.139 149.829 185.134 149.973 185.123 150.112C185.113 150.251 185.097 150.373 185.075 150.48H178.499V149.456H184.291L183.955 149.824C183.955 148.907 183.742 148.219 183.315 147.76C182.899 147.301 182.334 147.072 181.619 147.072C181.139 147.072 180.691 147.189 180.275 147.424C179.87 147.659 179.545 148 179.299 148.448C179.054 148.896 178.931 149.445 178.931 150.096C178.931 150.768 179.065 151.328 179.331 151.776C179.598 152.224 179.961 152.565 180.419 152.8C180.878 153.024 181.395 153.136 181.971 153.136C182.441 153.136 182.862 153.072 183.235 152.944C183.619 152.805 183.987 152.624 184.339 152.4L184.819 153.264C184.435 153.52 183.993 153.739 183.491 153.92C183.001 154.101 182.441 154.192 181.811 154.192ZM191.405 154.192C190.626 154.192 189.917 154.032 189.277 153.712C188.648 153.392 188.146 152.928 187.773 152.32C187.4 151.701 187.213 150.96 187.213 150.096C187.213 149.253 187.4 148.528 187.773 147.92C188.146 147.312 188.632 146.848 189.229 146.528C189.837 146.197 190.488 146.032 191.181 146.032C191.928 146.032 192.562 146.187 193.085 146.496C193.618 146.795 194.024 147.216 194.301 147.76C194.589 148.304 194.733 148.944 194.733 149.68C194.733 149.829 194.728 149.973 194.717 150.112C194.706 150.251 194.69 150.373 194.669 150.48H188.093V149.456H193.885L193.549 149.824C193.549 148.907 193.336 148.219 192.909 147.76C192.493 147.301 191.928 147.072 191.213 147.072C190.733 147.072 190.285 147.189 189.869 147.424C189.464 147.659 189.138 148 188.893 148.448C188.648 148.896 188.525 149.445 188.525 150.096C188.525 150.768 188.658 151.328 188.925 151.776C189.192 152.224 189.554 152.565 190.013 152.8C190.472 153.024 190.989 153.136 191.565 153.136C192.034 153.136 192.456 153.072 192.829 152.944C193.213 152.805 193.581 152.624 193.933 152.4L194.413 153.264C194.029 153.52 193.586 153.739 193.085 153.92C192.594 154.101 192.034 154.192 191.405 154.192ZM197.415 154V142.608H198.727V150.32H198.791L202.983 146.224H204.487L198.727 151.888V154H197.415ZM203.431 154L200.391 149.856L201.191 149.008L204.903 154H203.431ZM211.809 154.192C210.987 154.192 210.358 153.957 209.921 153.488C209.483 153.008 209.265 152.309 209.265 151.392V143.68H206.609V142.608H210.577V151.488C210.577 152.053 210.715 152.464 210.993 152.72C211.27 152.976 211.638 153.104 212.097 153.104C212.321 153.104 212.55 153.077 212.785 153.024C213.019 152.96 213.281 152.864 213.569 152.736L213.905 153.728C213.553 153.856 213.222 153.963 212.913 154.048C212.603 154.144 212.235 154.192 211.809 154.192ZM217.002 157.344C216.832 157.344 216.65 157.328 216.458 157.296C216.277 157.264 216.117 157.227 215.978 157.184L216.25 156.144C216.357 156.176 216.469 156.203 216.586 156.224C216.714 156.245 216.837 156.256 216.954 156.256C217.498 156.256 217.941 156.096 218.282 155.776C218.624 155.467 218.89 155.072 219.082 154.592L219.322 154.016L215.69 146.224H217.018L218.922 150.528C219.072 150.869 219.226 151.237 219.386 151.632C219.557 152.016 219.722 152.4 219.882 152.784H219.946C220.085 152.411 220.224 152.032 220.362 151.648C220.512 151.253 220.65 150.88 220.778 150.528L222.474 146.224H223.722L220.298 154.64C220.106 155.152 219.866 155.611 219.578 156.016C219.29 156.432 218.933 156.757 218.506 156.992C218.09 157.227 217.589 157.344 217.002 157.344ZM225.46 156.24V155.104H233.14V156.24H225.46ZM238.03 154.192C237.55 154.192 237.107 154.107 236.702 153.936C236.296 153.755 235.976 153.499 235.742 153.168C235.507 152.837 235.39 152.443 235.39 151.984C235.39 151.109 235.827 150.448 236.702 150C237.576 149.541 239.016 149.232 241.022 149.072C241.011 148.72 240.936 148.395 240.798 148.096C240.67 147.797 240.456 147.563 240.158 147.392C239.859 147.211 239.459 147.12 238.958 147.12C238.627 147.12 238.296 147.168 237.966 147.264C237.646 147.349 237.336 147.467 237.038 147.616C236.75 147.755 236.483 147.899 236.238 148.048L235.726 147.152C235.982 146.981 236.291 146.811 236.654 146.64C237.027 146.459 237.427 146.315 237.854 146.208C238.28 146.091 238.723 146.032 239.182 146.032C239.896 146.032 240.483 146.165 240.942 146.432C241.411 146.699 241.758 147.072 241.982 147.552C242.216 148.021 242.334 148.581 242.334 149.232V154H241.262L241.15 152.944H241.102C240.675 153.285 240.195 153.579 239.662 153.824C239.128 154.069 238.584 154.192 238.03 154.192ZM238.382 153.136C238.83 153.136 239.272 153.035 239.71 152.832C240.147 152.629 240.584 152.347 241.022 151.984V149.936C239.912 150.032 239.038 150.165 238.398 150.336C237.768 150.507 237.32 150.725 237.054 150.992C236.798 151.248 236.67 151.547 236.67 151.888C236.67 152.176 236.75 152.416 236.91 152.608C237.07 152.789 237.278 152.923 237.534 153.008C237.8 153.093 238.083 153.136 238.382 153.136ZM249.224 154.192C248.413 154.192 247.682 154.032 247.032 153.712C246.392 153.392 245.885 152.928 245.512 152.32C245.149 151.712 244.968 150.981 244.968 150.128C244.968 149.253 245.165 148.512 245.56 147.904C245.954 147.296 246.477 146.832 247.128 146.512C247.789 146.192 248.514 146.032 249.304 146.032C249.944 146.032 250.493 146.144 250.952 146.368C251.421 146.592 251.816 146.859 252.135 147.168L251.48 148.016C251.16 147.739 250.829 147.52 250.488 147.36C250.146 147.2 249.768 147.12 249.352 147.12C248.754 147.12 248.226 147.248 247.768 147.504C247.309 147.749 246.952 148.101 246.696 148.56C246.45 149.008 246.328 149.531 246.328 150.128C246.328 150.715 246.45 151.232 246.696 151.68C246.941 152.128 247.288 152.48 247.736 152.736C248.194 152.981 248.722 153.104 249.32 153.104C249.8 153.104 250.237 153.008 250.632 152.816C251.037 152.624 251.4 152.395 251.72 152.128L252.312 152.976C251.885 153.36 251.405 153.659 250.872 153.872C250.349 154.085 249.8 154.192 249.224 154.192ZM259.585 154.192C258.828 154.192 258.231 154.059 257.793 153.792C257.356 153.515 257.041 153.136 256.849 152.656C256.668 152.176 256.577 151.616 256.577 150.976V147.296H254.385V146.304L256.625 146.224L256.801 143.728H257.889V146.224H261.713V147.296H257.889V150.992C257.889 151.451 257.948 151.84 258.065 152.16C258.183 152.48 258.385 152.72 258.673 152.88C258.961 153.04 259.356 153.12 259.857 153.12C260.231 153.12 260.567 153.088 260.865 153.024C261.164 152.96 261.452 152.875 261.729 152.768L262.017 153.728C261.665 153.856 261.292 153.963 260.897 154.048C260.513 154.144 260.076 154.192 259.585 154.192ZM267.931 154V147.296H264.315V146.224H269.243V154H267.931ZM268.443 144.592C268.144 144.592 267.894 144.501 267.691 144.32C267.488 144.128 267.387 143.877 267.387 143.568C267.387 143.259 267.488 143.013 267.691 142.832C267.894 142.64 268.144 142.544 268.443 142.544C268.742 142.544 268.992 142.64 269.195 142.832C269.398 143.013 269.499 143.259 269.499 143.568C269.499 143.877 269.398 144.128 269.195 144.32C268.992 144.501 268.742 144.592 268.443 144.592ZM276.565 154L273.285 146.224H274.613L276.405 150.64C276.565 151.024 276.714 151.408 276.853 151.792C277.002 152.176 277.146 152.555 277.285 152.928H277.349C277.487 152.555 277.626 152.176 277.765 151.792C277.903 151.408 278.047 151.024 278.197 150.64L279.989 146.224H281.253L278.037 154H276.565ZM287.343 154.192C286.564 154.192 285.855 154.032 285.215 153.712C284.585 153.392 284.084 152.928 283.711 152.32C283.337 151.701 283.151 150.96 283.151 150.096C283.151 149.253 283.337 148.528 283.711 147.92C284.084 147.312 284.569 146.848 285.167 146.528C285.775 146.197 286.425 146.032 287.119 146.032C287.865 146.032 288.5 146.187 289.023 146.496C289.556 146.795 289.961 147.216 290.239 147.76C290.527 148.304 290.671 148.944 290.671 149.68C290.671 149.829 290.665 149.973 290.655 150.112C290.644 150.251 290.628 150.373 290.607 150.48H284.031V149.456H289.823L289.487 149.824C289.487 148.907 289.273 148.219 288.847 147.76C288.431 147.301 287.865 147.072 287.151 147.072C286.671 147.072 286.223 147.189 285.807 147.424C285.401 147.659 285.076 148 284.831 148.448C284.585 148.896 284.463 149.445 284.463 150.096C284.463 150.768 284.596 151.328 284.863 151.776C285.129 152.224 285.492 152.565 285.951 152.8C286.409 153.024 286.927 153.136 287.503 153.136C287.972 153.136 288.393 153.072 288.767 152.944C289.151 152.805 289.519 152.624 289.871 152.4L290.351 153.264C289.967 153.52 289.524 153.739 289.023 153.92C288.532 154.101 287.972 154.192 287.343 154.192ZM122.905 178.192C122.425 178.192 121.982 178.107 121.577 177.936C121.171 177.755 120.851 177.499 120.617 177.168C120.382 176.837 120.265 176.443 120.265 175.984C120.265 175.109 120.702 174.448 121.577 174C122.451 173.541 123.891 173.232 125.897 173.072C125.886 172.72 125.811 172.395 125.673 172.096C125.545 171.797 125.331 171.563 125.033 171.392C124.734 171.211 124.334 171.12 123.833 171.12C123.502 171.12 123.171 171.168 122.841 171.264C122.521 171.349 122.211 171.467 121.913 171.616C121.625 171.755 121.358 171.899 121.113 172.048L120.601 171.152C120.857 170.981 121.166 170.811 121.529 170.64C121.902 170.459 122.302 170.315 122.729 170.208C123.155 170.091 123.598 170.032 124.057 170.032C124.771 170.032 125.358 170.165 125.817 170.432C126.286 170.699 126.633 171.072 126.857 171.552C127.091 172.021 127.209 172.581 127.209 173.232V178H126.137L126.025 176.944H125.977C125.55 177.285 125.07 177.579 124.537 177.824C124.003 178.069 123.459 178.192 122.905 178.192ZM123.257 177.136C123.705 177.136 124.147 177.035 124.585 176.832C125.022 176.629 125.459 176.347 125.897 175.984V173.936C124.787 174.032 123.913 174.165 123.273 174.336C122.643 174.507 122.195 174.725 121.929 174.992C121.673 175.248 121.545 175.547 121.545 175.888C121.545 176.176 121.625 176.416 121.785 176.608C121.945 176.789 122.153 176.923 122.409 177.008C122.675 177.093 122.958 177.136 123.257 177.136ZM134.099 178.192C133.288 178.192 132.557 178.032 131.907 177.712C131.267 177.392 130.76 176.928 130.387 176.32C130.024 175.712 129.843 174.981 129.843 174.128C129.843 173.253 130.04 172.512 130.435 171.904C130.829 171.296 131.352 170.832 132.003 170.512C132.664 170.192 133.389 170.032 134.179 170.032C134.819 170.032 135.368 170.144 135.827 170.368C136.296 170.592 136.691 170.859 137.01 171.168L136.355 172.016C136.035 171.739 135.704 171.52 135.363 171.36C135.021 171.2 134.643 171.12 134.227 171.12C133.629 171.12 133.101 171.248 132.643 171.504C132.184 171.749 131.827 172.101 131.571 172.56C131.325 173.008 131.203 173.531 131.203 174.128C131.203 174.715 131.325 175.232 131.571 175.68C131.816 176.128 132.163 176.48 132.611 176.736C133.069 176.981 133.597 177.104 134.195 177.104C134.675 177.104 135.112 177.008 135.507 176.816C135.912 176.624 136.275 176.395 136.595 176.128L137.187 176.976C136.76 177.36 136.28 177.659 135.747 177.872C135.224 178.085 134.675 178.192 134.099 178.192ZM144.46 178.192C143.703 178.192 143.106 178.059 142.668 177.792C142.231 177.515 141.916 177.136 141.724 176.656C141.543 176.176 141.452 175.616 141.452 174.976V171.296H139.26V170.304L141.5 170.224L141.676 167.728H142.764V170.224H146.588V171.296H142.764V174.992C142.764 175.451 142.823 175.84 142.94 176.16C143.058 176.48 143.26 176.72 143.548 176.88C143.836 177.04 144.231 177.12 144.732 177.12C145.106 177.12 145.442 177.088 145.74 177.024C146.039 176.96 146.327 176.875 146.604 176.768L146.892 177.728C146.54 177.856 146.167 177.963 145.772 178.048C145.388 178.144 144.951 178.192 144.46 178.192ZM152.806 178V171.296H149.19V170.224H154.118V178H152.806ZM153.318 168.592C153.019 168.592 152.769 168.501 152.566 168.32C152.363 168.128 152.262 167.877 152.262 167.568C152.262 167.259 152.363 167.013 152.566 166.832C152.769 166.64 153.019 166.544 153.318 166.544C153.617 166.544 153.867 166.64 154.07 166.832C154.273 167.013 154.374 167.259 154.374 167.568C154.374 167.877 154.273 168.128 154.07 168.32C153.867 168.501 153.617 168.592 153.318 168.592ZM161.44 178L158.16 170.224H159.488L161.28 174.64C161.44 175.024 161.589 175.408 161.728 175.792C161.877 176.176 162.021 176.555 162.16 176.928H162.224C162.362 176.555 162.501 176.176 162.64 175.792C162.778 175.408 162.922 175.024 163.072 174.64L164.864 170.224H166.128L162.912 178H161.44ZM172.218 178.192C171.439 178.192 170.73 178.032 170.09 177.712C169.46 177.392 168.959 176.928 168.586 176.32C168.212 175.701 168.026 174.96 168.026 174.096C168.026 173.253 168.212 172.528 168.586 171.92C168.959 171.312 169.444 170.848 170.042 170.528C170.65 170.197 171.3 170.032 171.994 170.032C172.74 170.032 173.375 170.187 173.898 170.496C174.431 170.795 174.836 171.216 175.114 171.76C175.402 172.304 175.546 172.944 175.546 173.68C175.546 173.829 175.54 173.973 175.53 174.112C175.519 174.251 175.503 174.373 175.482 174.48H168.906V173.456H174.698L174.362 173.824C174.362 172.907 174.148 172.219 173.722 171.76C173.306 171.301 172.74 171.072 172.026 171.072C171.546 171.072 171.098 171.189 170.682 171.424C170.276 171.659 169.951 172 169.706 172.448C169.46 172.896 169.338 173.445 169.338 174.096C169.338 174.768 169.471 175.328 169.738 175.776C170.004 176.224 170.367 176.565 170.826 176.8C171.284 177.024 171.802 177.136 172.378 177.136C172.847 177.136 173.268 177.072 173.642 176.944C174.026 176.805 174.394 176.624 174.746 176.4L175.226 177.264C174.842 177.52 174.399 177.739 173.898 177.92C173.407 178.101 172.847 178.192 172.218 178.192ZM177.491 180.24V179.104H185.171V180.24H177.491ZM190.061 178.192C189.133 178.192 188.45 177.925 188.013 177.392C187.576 176.859 187.357 176.08 187.357 175.056V170.224H188.685V174.88C188.685 175.616 188.818 176.165 189.085 176.528C189.362 176.88 189.826 177.056 190.477 177.056C190.925 177.056 191.33 176.944 191.693 176.72C192.066 176.485 192.466 176.117 192.893 175.616V170.224H194.205V178H193.133L193.021 176.64H192.957C192.562 177.088 192.13 177.461 191.661 177.76C191.192 178.048 190.658 178.192 190.061 178.192ZM200.679 178.192C199.921 178.192 199.212 178.069 198.551 177.824C197.889 177.579 197.324 177.296 196.855 176.976L197.463 176.112C197.911 176.432 198.407 176.688 198.951 176.88C199.495 177.072 200.124 177.168 200.839 177.168C201.5 177.168 201.991 177.045 202.311 176.8C202.641 176.555 202.807 176.272 202.807 175.952C202.807 175.803 202.775 175.664 202.711 175.536C202.657 175.408 202.545 175.285 202.375 175.168C202.215 175.051 201.975 174.939 201.655 174.832C201.335 174.725 200.908 174.619 200.375 174.512C199.361 174.299 198.599 174.011 198.087 173.648C197.585 173.285 197.335 172.816 197.335 172.24C197.335 171.611 197.607 171.088 198.151 170.672C198.695 170.245 199.5 170.032 200.567 170.032C201.164 170.032 201.74 170.133 202.295 170.336C202.849 170.528 203.319 170.757 203.703 171.024L203.063 171.872C202.711 171.616 202.311 171.419 201.863 171.28C201.415 171.131 200.945 171.056 200.455 171.056C200.007 171.056 199.649 171.109 199.383 171.216C199.127 171.312 198.94 171.445 198.823 171.616C198.716 171.787 198.663 171.973 198.663 172.176C198.663 172.507 198.839 172.768 199.191 172.96C199.553 173.141 200.129 173.312 200.919 173.472C201.783 173.653 202.444 173.856 202.903 174.08C203.372 174.304 203.692 174.56 203.863 174.848C204.044 175.136 204.135 175.477 204.135 175.872C204.135 176.299 204.001 176.688 203.735 177.04C203.468 177.381 203.079 177.659 202.567 177.872C202.055 178.085 201.425 178.192 200.679 178.192ZM210.593 178.192C209.814 178.192 209.105 178.032 208.465 177.712C207.835 177.392 207.334 176.928 206.961 176.32C206.587 175.701 206.401 174.96 206.401 174.096C206.401 173.253 206.587 172.528 206.961 171.92C207.334 171.312 207.819 170.848 208.417 170.528C209.025 170.197 209.675 170.032 210.369 170.032C211.115 170.032 211.75 170.187 212.273 170.496C212.806 170.795 213.211 171.216 213.489 171.76C213.777 172.304 213.921 172.944 213.921 173.68C213.921 173.829 213.915 173.973 213.905 174.112C213.894 174.251 213.878 174.373 213.857 174.48H207.281V173.456H213.073L212.737 173.824C212.737 172.907 212.523 172.219 212.097 171.76C211.681 171.301 211.115 171.072 210.401 171.072C209.921 171.072 209.473 171.189 209.057 171.424C208.651 171.659 208.326 172 208.081 172.448C207.835 172.896 207.713 173.445 207.713 174.096C207.713 174.768 207.846 175.328 208.113 175.776C208.379 176.224 208.742 176.565 209.201 176.8C209.659 177.024 210.177 177.136 210.753 177.136C211.222 177.136 211.643 177.072 212.017 176.944C212.401 176.805 212.769 176.624 213.121 176.4L213.601 177.264C213.217 177.52 212.774 177.739 212.273 177.92C211.782 178.101 211.222 178.192 210.593 178.192ZM217.242 178V170.224H218.33L218.442 172.064H218.49C218.896 171.435 219.397 170.939 219.994 170.576C220.592 170.213 221.248 170.032 221.962 170.032C222.25 170.032 222.517 170.059 222.762 170.112C223.018 170.155 223.264 170.235 223.498 170.352L223.194 171.488C222.928 171.392 222.698 171.323 222.506 171.28C222.314 171.237 222.064 171.216 221.754 171.216C221.168 171.216 220.602 171.387 220.058 171.728C219.525 172.059 219.024 172.629 218.554 173.44V178H217.242ZM229.46 178.192C228.703 178.192 227.993 178.069 227.332 177.824C226.671 177.579 226.105 177.296 225.636 176.976L226.244 176.112C226.692 176.432 227.188 176.688 227.732 176.88C228.276 177.072 228.905 177.168 229.62 177.168C230.281 177.168 230.772 177.045 231.092 176.8C231.423 176.555 231.588 176.272 231.588 175.952C231.588 175.803 231.556 175.664 231.492 175.536C231.439 175.408 231.327 175.285 231.156 175.168C230.996 175.051 230.756 174.939 230.436 174.832C230.116 174.725 229.689 174.619 229.156 174.512C228.143 174.299 227.38 174.011 226.868 173.648C226.367 173.285 226.116 172.816 226.116 172.24C226.116 171.611 226.388 171.088 226.932 170.672C227.476 170.245 228.281 170.032 229.348 170.032C229.945 170.032 230.521 170.133 231.076 170.336C231.631 170.528 232.1 170.757 232.484 171.024L231.844 171.872C231.492 171.616 231.092 171.419 230.644 171.28C230.196 171.131 229.727 171.056 229.236 171.056C228.788 171.056 228.431 171.109 228.164 171.216C227.908 171.312 227.721 171.445 227.604 171.616C227.497 171.787 227.444 171.973 227.444 172.176C227.444 172.507 227.62 172.768 227.972 172.96C228.335 173.141 228.911 173.312 229.7 173.472C230.564 173.653 231.225 173.856 231.684 174.08C232.153 174.304 232.473 174.56 232.644 174.848C232.825 175.136 232.916 175.477 232.916 175.872C232.916 176.299 232.783 176.688 232.516 177.04C232.249 177.381 231.86 177.659 231.348 177.872C230.836 178.085 230.207 178.192 229.46 178.192ZM134.867 202.192C134.109 202.192 133.512 202.059 133.075 201.792C132.637 201.515 132.323 201.136 132.131 200.656C131.949 200.176 131.859 199.616 131.859 198.976V195.296H129.667V194.304L131.907 194.224L132.083 191.728H133.171V194.224H136.995V195.296H133.171V198.992C133.171 199.451 133.229 199.84 133.347 200.16C133.464 200.48 133.667 200.72 133.955 200.88C134.243 201.04 134.637 201.12 135.139 201.12C135.512 201.12 135.848 201.088 136.147 201.024C136.445 200.96 136.733 200.875 137.01 200.768L137.299 201.728C136.947 201.856 136.573 201.963 136.179 202.048C135.795 202.144 135.357 202.192 134.867 202.192ZM143.212 202V195.296H139.596V194.224H144.524V202H143.212ZM143.724 192.592C143.426 192.592 143.175 192.501 142.972 192.32C142.77 192.128 142.668 191.877 142.668 191.568C142.668 191.259 142.77 191.013 142.972 190.832C143.175 190.64 143.426 190.544 143.724 190.544C144.023 190.544 144.274 190.64 144.476 190.832C144.679 191.013 144.78 191.259 144.78 191.568C144.78 191.877 144.679 192.128 144.476 192.32C144.274 192.501 144.023 192.592 143.724 192.592ZM148.678 202V194.224H149.734L149.846 195.248H149.878C150.081 194.885 150.315 194.592 150.582 194.368C150.849 194.144 151.206 194.032 151.654 194.032C152.038 194.032 152.353 194.144 152.598 194.368C152.843 194.592 153.019 194.928 153.126 195.376C153.35 194.96 153.595 194.635 153.862 194.4C154.139 194.155 154.502 194.032 154.95 194.032C155.494 194.032 155.915 194.24 156.214 194.656C156.523 195.061 156.678 195.653 156.678 196.432V202H155.366V196.528C155.366 195.621 155.089 195.168 154.534 195.168C154.267 195.168 154.043 195.269 153.862 195.472C153.691 195.664 153.499 195.963 153.286 196.368V202H152.07V196.528C152.07 196.08 152.006 195.744 151.878 195.52C151.761 195.285 151.558 195.168 151.27 195.168C151.003 195.168 150.769 195.269 150.566 195.472C150.374 195.664 150.182 195.963 149.99 196.368V202H148.678ZM162.624 202.192C161.845 202.192 161.136 202.032 160.496 201.712C159.866 201.392 159.365 200.928 158.992 200.32C158.618 199.701 158.432 198.96 158.432 198.096C158.432 197.253 158.618 196.528 158.992 195.92C159.365 195.312 159.85 194.848 160.448 194.528C161.056 194.197 161.706 194.032 162.4 194.032C163.146 194.032 163.781 194.187 164.304 194.496C164.837 194.795 165.242 195.216 165.52 195.76C165.808 196.304 165.952 196.944 165.952 197.68C165.952 197.829 165.946 197.973 165.936 198.112C165.925 198.251 165.909 198.373 165.888 198.48H159.312V197.456H165.104L164.768 197.824C164.768 196.907 164.554 196.219 164.128 195.76C163.712 195.301 163.146 195.072 162.432 195.072C161.952 195.072 161.504 195.189 161.088 195.424C160.682 195.659 160.357 196 160.112 196.448C159.866 196.896 159.744 197.445 159.744 198.096C159.744 198.768 159.877 199.328 160.144 199.776C160.41 200.224 160.773 200.565 161.232 200.8C161.69 201.024 162.208 201.136 162.784 201.136C163.253 201.136 163.674 201.072 164.048 200.944C164.432 200.805 164.8 200.624 165.152 200.4L165.632 201.264C165.248 201.52 164.805 201.739 164.304 201.92C163.813 202.101 163.253 202.192 162.624 202.192ZM374.71 202.192C373.953 202.192 373.356 202.059 372.918 201.792C372.481 201.515 372.166 201.136 371.974 200.656C371.793 200.176 371.702 199.616 371.702 198.976V195.296H369.51V194.304L371.75 194.224L371.926 191.728H373.014V194.224H376.838V195.296H373.014V198.992C373.014 199.451 373.073 199.84 373.19 200.16C373.308 200.48 373.51 200.72 373.798 200.88C374.086 201.04 374.481 201.12 374.982 201.12C375.356 201.12 375.692 201.088 375.99 201.024C376.289 200.96 376.577 200.875 376.854 200.768L377.142 201.728C376.79 201.856 376.417 201.963 376.022 202.048C375.638 202.144 375.201 202.192 374.71 202.192ZM383.056 202V195.296H379.44V194.224H384.368V202H383.056ZM383.568 192.592C383.269 192.592 383.019 192.501 382.816 192.32C382.613 192.128 382.512 191.877 382.512 191.568C382.512 191.259 382.613 191.013 382.816 190.832C383.019 190.64 383.269 190.544 383.568 190.544C383.867 190.544 384.117 190.64 384.32 190.832C384.523 191.013 384.624 191.259 384.624 191.568C384.624 191.877 384.523 192.128 384.32 192.32C384.117 192.501 383.867 192.592 383.568 192.592ZM388.522 202V194.224H389.578L389.69 195.248H389.722C389.924 194.885 390.159 194.592 390.426 194.368C390.692 194.144 391.05 194.032 391.498 194.032C391.882 194.032 392.196 194.144 392.442 194.368C392.687 194.592 392.863 194.928 392.97 195.376C393.194 194.96 393.439 194.635 393.706 194.4C393.983 194.155 394.346 194.032 394.794 194.032C395.338 194.032 395.759 194.24 396.058 194.656C396.367 195.061 396.522 195.653 396.522 196.432V202H395.21V196.528C395.21 195.621 394.932 195.168 394.378 195.168C394.111 195.168 393.887 195.269 393.706 195.472C393.535 195.664 393.343 195.963 393.13 196.368V202H391.914V196.528C391.914 196.08 391.85 195.744 391.722 195.52C391.604 195.285 391.402 195.168 391.114 195.168C390.847 195.168 390.612 195.269 390.41 195.472C390.218 195.664 390.026 195.963 389.834 196.368V202H388.522ZM402.468 202.192C401.689 202.192 400.98 202.032 400.34 201.712C399.71 201.392 399.209 200.928 398.836 200.32C398.462 199.701 398.276 198.96 398.276 198.096C398.276 197.253 398.462 196.528 398.836 195.92C399.209 195.312 399.694 194.848 400.292 194.528C400.9 194.197 401.55 194.032 402.244 194.032C402.99 194.032 403.625 194.187 404.148 194.496C404.681 194.795 405.086 195.216 405.364 195.76C405.652 196.304 405.796 196.944 405.796 197.68C405.796 197.829 405.79 197.973 405.78 198.112C405.769 198.251 405.753 198.373 405.732 198.48H399.156V197.456H404.948L404.612 197.824C404.612 196.907 404.398 196.219 403.972 195.76C403.556 195.301 402.99 195.072 402.276 195.072C401.796 195.072 401.348 195.189 400.932 195.424C400.526 195.659 400.201 196 399.956 196.448C399.71 196.896 399.588 197.445 399.588 198.096C399.588 198.768 399.721 199.328 399.988 199.776C400.254 200.224 400.617 200.565 401.076 200.8C401.534 201.024 402.052 201.136 402.628 201.136C403.097 201.136 403.518 201.072 403.892 200.944C404.276 200.805 404.644 200.624 404.996 200.4L405.476 201.264C405.092 201.52 404.649 201.739 404.148 201.92C403.657 202.101 403.097 202.192 402.468 202.192ZM161.68 250.192C160.666 250.192 159.85 249.84 159.232 249.136C158.613 248.421 158.304 247.419 158.304 246.128C158.304 245.285 158.469 244.56 158.8 243.952C159.141 243.333 159.578 242.859 160.112 242.528C160.656 242.197 161.232 242.032 161.84 242.032C162.298 242.032 162.714 242.123 163.088 242.304C163.472 242.475 163.829 242.72 164.16 243.04H164.208L164.144 241.6V238.608H165.456V250H164.368L164.256 248.976H164.208C163.898 249.307 163.52 249.595 163.072 249.84C162.634 250.075 162.17 250.192 161.68 250.192ZM161.952 249.088C162.336 249.088 162.709 248.992 163.072 248.8C163.434 248.597 163.792 248.304 164.144 247.92V244.048C163.792 243.717 163.445 243.483 163.104 243.344C162.773 243.205 162.437 243.136 162.096 243.136C161.648 243.136 161.237 243.264 160.864 243.52C160.501 243.765 160.208 244.112 159.984 244.56C159.77 244.997 159.664 245.515 159.664 246.112C159.664 247.04 159.866 247.771 160.272 248.304C160.677 248.827 161.237 249.088 161.952 249.088ZM170.874 250.192C170.394 250.192 169.951 250.107 169.546 249.936C169.14 249.755 168.82 249.499 168.586 249.168C168.351 248.837 168.234 248.443 168.234 247.984C168.234 247.109 168.671 246.448 169.546 246C170.42 245.541 171.86 245.232 173.866 245.072C173.855 244.72 173.78 244.395 173.642 244.096C173.514 243.797 173.3 243.563 173.002 243.392C172.703 243.211 172.303 243.12 171.802 243.12C171.471 243.12 171.14 243.168 170.81 243.264C170.49 243.349 170.18 243.467 169.882 243.616C169.594 243.755 169.327 243.899 169.082 244.048L168.57 243.152C168.826 242.981 169.135 242.811 169.498 242.64C169.871 242.459 170.271 242.315 170.698 242.208C171.124 242.091 171.567 242.032 172.026 242.032C172.74 242.032 173.327 242.165 173.786 242.432C174.255 242.699 174.602 243.072 174.826 243.552C175.06 244.021 175.178 244.581 175.178 245.232V250H174.106L173.994 248.944H173.946C173.519 249.285 173.039 249.579 172.506 249.824C171.972 250.069 171.428 250.192 170.874 250.192ZM171.226 249.136C171.674 249.136 172.116 249.035 172.554 248.832C172.991 248.629 173.428 248.347 173.866 247.984V245.936C172.756 246.032 171.882 246.165 171.242 246.336C170.612 246.507 170.164 246.725 169.898 246.992C169.642 247.248 169.514 247.547 169.514 247.888C169.514 248.176 169.594 248.416 169.754 248.608C169.914 248.789 170.122 248.923 170.378 249.008C170.644 249.093 170.927 249.136 171.226 249.136ZM178.627 253.344C178.457 253.344 178.275 253.328 178.083 253.296C177.902 253.264 177.742 253.227 177.603 253.184L177.875 252.144C177.982 252.176 178.094 252.203 178.211 252.224C178.339 252.245 178.462 252.256 178.579 252.256C179.123 252.256 179.566 252.096 179.907 251.776C180.249 251.467 180.515 251.072 180.707 250.592L180.947 250.016L177.315 242.224H178.643L180.547 246.528C180.697 246.869 180.851 247.237 181.011 247.632C181.182 248.016 181.347 248.4 181.507 248.784H181.571C181.71 248.411 181.849 248.032 181.987 247.648C182.137 247.253 182.275 246.88 182.403 246.528L184.099 242.224H185.347L181.923 250.64C181.731 251.152 181.491 251.611 181.203 252.016C180.915 252.432 180.558 252.757 180.131 252.992C179.715 253.227 179.214 253.344 178.627 253.344Z" fill="#EA9C27"/>
<path d="M91.5795 130V119.504H94.1715C95.2275 119.504 96.1128 119.707 96.8275 120.112C97.5528 120.507 98.1022 121.093 98.4755 121.872C98.8488 122.651 99.0355 123.595 99.0355 124.704C99.0355 125.824 98.8488 126.779 98.4755 127.568C98.1128 128.357 97.5742 128.96 96.8595 129.376C96.1448 129.792 95.2702 130 94.2355 130H91.5795ZM92.9075 128.912H94.0755C94.8755 128.912 95.5368 128.747 96.0595 128.416C96.5928 128.075 96.9928 127.595 97.2595 126.976C97.5262 126.347 97.6595 125.589 97.6595 124.704C97.6595 123.829 97.5262 123.083 97.2595 122.464C96.9928 121.845 96.5928 121.381 96.0595 121.072C95.5368 120.752 94.8755 120.592 94.0755 120.592H92.9075V128.912ZM100.293 130L103.829 119.504H105.333L108.869 130H107.461L105.637 124.128C105.456 123.541 105.275 122.96 105.093 122.384C104.923 121.797 104.757 121.2 104.597 120.592H104.533C104.363 121.2 104.192 121.797 104.021 122.384C103.851 122.96 103.675 123.541 103.493 124.128L101.653 130H100.293ZM102.149 126.8V125.728H106.965V126.8H102.149ZM113.503 130V120.624H110.047V119.504H118.303V120.624H114.847V130H113.503ZM120.793 130V119.504H127.289V120.624H122.137V123.92H126.489V125.056H122.137V128.864H127.449V130H120.793ZM129.523 132.24V131.104H137.203V132.24H129.523ZM142.284 130V120.624H138.828V119.504H147.084V120.624H143.628V130H142.284ZM149.35 130V119.504H152.614C153.329 119.504 153.958 119.6 154.502 119.792C155.057 119.973 155.489 120.283 155.798 120.72C156.118 121.147 156.278 121.723 156.278 122.448C156.278 123.152 156.118 123.733 155.798 124.192C155.489 124.651 155.057 124.997 154.502 125.232C153.958 125.456 153.329 125.568 152.614 125.568H150.678V130H149.35ZM150.678 124.48H152.422C153.243 124.48 153.867 124.315 154.294 123.984C154.731 123.643 154.95 123.131 154.95 122.448C154.95 121.765 154.731 121.285 154.294 121.008C153.867 120.72 153.243 120.576 152.422 120.576H150.678V124.48ZM152.342 125.2L153.398 124.496L156.598 130H155.078L152.342 125.2ZM162.16 130.192C161.648 130.192 161.173 130.117 160.736 129.968C160.309 129.808 159.936 129.568 159.616 129.248C159.296 128.917 159.045 128.485 158.864 127.952C158.693 127.419 158.608 126.779 158.608 126.032V119.504H159.952V126.064C159.952 126.789 160.048 127.371 160.24 127.808C160.432 128.235 160.693 128.544 161.024 128.736C161.365 128.928 161.744 129.024 162.16 129.024C162.586 129.024 162.965 128.928 163.296 128.736C163.637 128.544 163.904 128.235 164.096 127.808C164.288 127.371 164.384 126.789 164.384 126.064V119.504H165.68V126.032C165.68 126.779 165.589 127.419 165.408 127.952C165.237 128.485 164.992 128.917 164.672 129.248C164.362 129.568 163.994 129.808 163.568 129.968C163.141 130.117 162.672 130.192 162.16 130.192ZM168.25 130V119.504H169.722L173.082 126.096L174.09 128.272H174.122C174.1 127.749 174.063 127.205 174.01 126.64C173.967 126.064 173.946 125.499 173.946 124.944V119.504H175.226V130H173.754L170.394 123.408L169.386 121.232H169.354C169.375 121.765 169.407 122.309 169.45 122.864C169.503 123.419 169.53 123.968 169.53 124.512V130H168.25ZM182.147 130.192C181.497 130.192 180.894 130.069 180.339 129.824C179.785 129.579 179.299 129.227 178.883 128.768C178.467 128.299 178.142 127.728 177.907 127.056C177.683 126.373 177.571 125.605 177.571 124.752C177.571 123.632 177.774 122.667 178.179 121.856C178.585 121.035 179.139 120.405 179.843 119.968C180.547 119.531 181.358 119.312 182.275 119.312C182.905 119.312 183.465 119.445 183.955 119.712C184.446 119.968 184.841 120.261 185.139 120.592L184.387 121.44C184.121 121.141 183.811 120.907 183.459 120.736C183.107 120.565 182.713 120.48 182.275 120.48C181.603 120.48 181.017 120.656 180.515 121.008C180.025 121.349 179.641 121.835 179.363 122.464C179.086 123.093 178.947 123.845 178.947 124.72C178.947 125.605 179.086 126.368 179.363 127.008C179.641 127.648 180.025 128.144 180.515 128.496C181.017 128.848 181.603 129.024 182.275 129.024C182.755 129.024 183.187 128.923 183.571 128.72C183.955 128.517 184.313 128.229 184.643 127.856L185.395 128.672C184.99 129.152 184.521 129.525 183.987 129.792C183.454 130.059 182.841 130.192 182.147 130.192ZM200.071 124.368L199.671 120.768L199.639 119.008H201.399L201.367 120.768L200.967 124.368H200.071ZM209.649 130.192C208.635 130.192 207.819 129.84 207.201 129.136C206.582 128.421 206.273 127.419 206.273 126.128C206.273 125.285 206.438 124.56 206.769 123.952C207.11 123.333 207.547 122.859 208.081 122.528C208.625 122.197 209.201 122.032 209.809 122.032C210.267 122.032 210.683 122.123 211.057 122.304C211.441 122.475 211.798 122.72 212.129 123.04H212.177L212.113 121.6V118.608H213.425V130H212.337L212.225 128.976H212.177C211.867 129.307 211.489 129.595 211.041 129.84C210.603 130.075 210.139 130.192 209.649 130.192ZM209.921 129.088C210.305 129.088 210.678 128.992 211.041 128.8C211.403 128.597 211.761 128.304 212.113 127.92V124.048C211.761 123.717 211.414 123.483 211.073 123.344C210.742 123.205 210.406 123.136 210.065 123.136C209.617 123.136 209.206 123.264 208.833 123.52C208.47 123.765 208.177 124.112 207.953 124.56C207.739 124.997 207.633 125.515 207.633 126.112C207.633 127.04 207.835 127.771 208.241 128.304C208.646 128.827 209.206 129.088 209.921 129.088ZM218.842 130.192C218.362 130.192 217.92 130.107 217.514 129.936C217.109 129.755 216.789 129.499 216.554 129.168C216.32 128.837 216.202 128.443 216.202 127.984C216.202 127.109 216.64 126.448 217.514 126C218.389 125.541 219.829 125.232 221.834 125.072C221.824 124.72 221.749 124.395 221.61 124.096C221.482 123.797 221.269 123.563 220.97 123.392C220.672 123.211 220.272 123.12 219.77 123.12C219.44 123.12 219.109 123.168 218.778 123.264C218.458 123.349 218.149 123.467 217.85 123.616C217.562 123.755 217.296 123.899 217.05 124.048L216.538 123.152C216.794 122.981 217.104 122.811 217.466 122.64C217.84 122.459 218.24 122.315 218.666 122.208C219.093 122.091 219.536 122.032 219.994 122.032C220.709 122.032 221.296 122.165 221.754 122.432C222.224 122.699 222.57 123.072 222.794 123.552C223.029 124.021 223.146 124.581 223.146 125.232V130H222.074L221.962 128.944H221.914C221.488 129.285 221.008 129.579 220.474 129.824C219.941 130.069 219.397 130.192 218.842 130.192ZM219.194 129.136C219.642 129.136 220.085 129.035 220.522 128.832C220.96 128.629 221.397 128.347 221.834 127.984V125.936C220.725 126.032 219.85 126.165 219.21 126.336C218.581 126.507 218.133 126.725 217.866 126.992C217.61 127.248 217.482 127.547 217.482 127.888C217.482 128.176 217.562 128.416 217.722 128.608C217.882 128.789 218.09 128.923 218.346 129.008C218.613 129.093 218.896 129.136 219.194 129.136ZM226.596 133.344C226.425 133.344 226.244 133.328 226.052 133.296C225.871 133.264 225.711 133.227 225.572 133.184L225.844 132.144C225.951 132.176 226.063 132.203 226.18 132.224C226.308 132.245 226.431 132.256 226.548 132.256C227.092 132.256 227.535 132.096 227.876 131.776C228.217 131.467 228.484 131.072 228.676 130.592L228.916 130.016L225.284 122.224H226.612L228.516 126.528C228.665 126.869 228.82 127.237 228.98 127.632C229.151 128.016 229.316 128.4 229.476 128.784H229.54C229.679 128.411 229.817 128.032 229.956 127.648C230.105 127.253 230.244 126.88 230.372 126.528L232.068 122.224H233.316L229.892 130.64C229.7 131.152 229.46 131.611 229.172 132.016C228.884 132.432 228.527 132.757 228.1 132.992C227.684 133.227 227.183 133.344 226.596 133.344ZM238.446 124.368L238.046 120.768L238.014 119.008H239.774L239.742 120.768L239.342 124.368H238.446ZM209.665 196.368L209.265 192.768L209.233 191.008H210.993L210.961 192.768L210.561 196.368H209.665ZM216.074 202V201.216C217.226 200.203 218.197 199.312 218.986 198.544C219.786 197.765 220.394 197.067 220.81 196.448C221.226 195.829 221.434 195.237 221.434 194.672C221.434 194.085 221.253 193.605 220.89 193.232C220.528 192.859 219.968 192.672 219.21 192.672C218.73 192.672 218.282 192.789 217.866 193.024C217.461 193.259 217.093 193.552 216.762 193.904L216.01 193.152C216.469 192.683 216.96 192.309 217.482 192.032C218.016 191.744 218.645 191.6 219.37 191.6C220.053 191.6 220.64 191.728 221.13 191.984C221.632 192.229 222.016 192.576 222.282 193.024C222.56 193.472 222.698 194 222.698 194.608C222.698 195.248 222.501 195.893 222.106 196.544C221.712 197.195 221.157 197.883 220.442 198.608C219.738 199.323 218.922 200.107 217.994 200.96C218.314 200.928 218.634 200.907 218.954 200.896C219.274 200.875 219.589 200.864 219.898 200.864H223.258V202H216.074ZM229.3 202.192C228.543 202.192 227.892 201.984 227.348 201.568C226.804 201.141 226.383 200.533 226.084 199.744C225.785 198.955 225.636 197.995 225.636 196.864C225.636 195.147 225.961 193.84 226.612 192.944C227.273 192.048 228.169 191.6 229.3 191.6C230.441 191.6 231.337 192.048 231.988 192.944C232.639 193.84 232.964 195.147 232.964 196.864C232.964 197.995 232.815 198.955 232.516 199.744C232.228 200.533 231.807 201.141 231.252 201.568C230.708 201.984 230.057 202.192 229.3 202.192ZM229.3 201.136C229.78 201.136 230.201 200.987 230.564 200.688C230.927 200.379 231.209 199.909 231.412 199.28C231.625 198.64 231.732 197.835 231.732 196.864C231.732 195.883 231.625 195.083 231.412 194.464C231.209 193.845 230.927 193.392 230.564 193.104C230.201 192.805 229.78 192.656 229.3 192.656C228.831 192.656 228.409 192.805 228.036 193.104C227.673 193.392 227.385 193.845 227.172 194.464C226.969 195.083 226.868 195.883 226.868 196.864C226.868 197.835 226.969 198.64 227.172 199.28C227.385 199.909 227.673 200.379 228.036 200.688C228.409 200.987 228.831 201.136 229.3 201.136ZM229.3 197.824C229.033 197.824 228.799 197.728 228.596 197.536C228.404 197.344 228.308 197.083 228.308 196.752C228.308 196.421 228.404 196.165 228.596 195.984C228.799 195.792 229.033 195.696 229.3 195.696C229.577 195.696 229.812 195.792 230.004 195.984C230.196 196.165 230.292 196.421 230.292 196.752C230.292 197.083 230.196 197.344 230.004 197.536C229.812 197.728 229.577 197.824 229.3 197.824ZM235.262 202V201.216C236.414 200.203 237.384 199.312 238.174 198.544C238.974 197.765 239.582 197.067 239.998 196.448C240.414 195.829 240.622 195.237 240.622 194.672C240.622 194.085 240.44 193.605 240.078 193.232C239.715 192.859 239.155 192.672 238.398 192.672C237.918 192.672 237.47 192.789 237.054 193.024C236.648 193.259 236.28 193.552 235.95 193.904L235.198 193.152C235.656 192.683 236.147 192.309 236.67 192.032C237.203 191.744 237.832 191.6 238.558 191.6C239.24 191.6 239.827 191.728 240.318 191.984C240.819 192.229 241.203 192.576 241.47 193.024C241.747 193.472 241.886 194 241.886 194.608C241.886 195.248 241.688 195.893 241.294 196.544C240.899 197.195 240.344 197.883 239.63 198.608C238.926 199.323 238.11 200.107 237.182 200.96C237.502 200.928 237.822 200.907 238.142 200.896C238.462 200.875 238.776 200.864 239.086 200.864H242.446V202H235.262ZM245.24 202V200.912H248.184V193.392H245.896V192.544C246.301 192.491 246.658 192.427 246.968 192.352C247.277 192.277 247.56 192.197 247.816 192.112C248.072 192.016 248.306 191.909 248.52 191.792H249.496V200.912H252.168V202H245.24ZM254.641 197.216V196.224H261.521V197.216H254.641ZM267.675 202.192C266.918 202.192 266.267 201.984 265.723 201.568C265.179 201.141 264.758 200.533 264.459 199.744C264.16 198.955 264.011 197.995 264.011 196.864C264.011 195.147 264.336 193.84 264.987 192.944C265.648 192.048 266.544 191.6 267.675 191.6C268.816 191.6 269.712 192.048 270.363 192.944C271.014 193.84 271.339 195.147 271.339 196.864C271.339 197.995 271.19 198.955 270.891 199.744C270.603 200.533 270.182 201.141 269.627 201.568C269.083 201.984 268.432 202.192 267.675 202.192ZM267.675 201.136C268.155 201.136 268.576 200.987 268.939 200.688C269.302 200.379 269.584 199.909 269.787 199.28C270 198.64 270.107 197.835 270.107 196.864C270.107 195.883 270 195.083 269.787 194.464C269.584 193.845 269.302 193.392 268.939 193.104C268.576 192.805 268.155 192.656 267.675 192.656C267.206 192.656 266.784 192.805 266.411 193.104C266.048 193.392 265.76 193.845 265.547 194.464C265.344 195.083 265.243 195.883 265.243 196.864C265.243 197.835 265.344 198.64 265.547 199.28C265.76 199.909 266.048 200.379 266.411 200.688C266.784 200.987 267.206 201.136 267.675 201.136ZM267.675 197.824C267.408 197.824 267.174 197.728 266.971 197.536C266.779 197.344 266.683 197.083 266.683 196.752C266.683 196.421 266.779 196.165 266.971 195.984C267.174 195.792 267.408 195.696 267.675 195.696C267.952 195.696 268.187 195.792 268.379 195.984C268.571 196.165 268.667 196.421 268.667 196.752C268.667 197.083 268.571 197.344 268.379 197.536C268.187 197.728 267.952 197.824 267.675 197.824ZM274.021 202V200.912H276.965V193.392H274.677V192.544C275.082 192.491 275.439 192.427 275.749 192.352C276.058 192.277 276.341 192.197 276.597 192.112C276.853 192.016 277.087 191.909 277.301 191.792H278.277V200.912H280.949V202H274.021ZM283.423 197.216V196.224H290.303V197.216H283.423ZM296.456 202.192C295.699 202.192 295.048 201.984 294.504 201.568C293.96 201.141 293.539 200.533 293.24 199.744C292.942 198.955 292.792 197.995 292.792 196.864C292.792 195.147 293.118 193.84 293.768 192.944C294.43 192.048 295.326 191.6 296.456 191.6C297.598 191.6 298.494 192.048 299.144 192.944C299.795 193.84 300.12 195.147 300.12 196.864C300.12 197.995 299.971 198.955 299.672 199.744C299.384 200.533 298.963 201.141 298.408 201.568C297.864 201.984 297.214 202.192 296.456 202.192ZM296.456 201.136C296.936 201.136 297.358 200.987 297.72 200.688C298.083 200.379 298.366 199.909 298.568 199.28C298.782 198.64 298.888 197.835 298.888 196.864C298.888 195.883 298.782 195.083 298.568 194.464C298.366 193.845 298.083 193.392 297.72 193.104C297.358 192.805 296.936 192.656 296.456 192.656C295.987 192.656 295.566 192.805 295.192 193.104C294.83 193.392 294.542 193.845 294.328 194.464C294.126 195.083 294.024 195.883 294.024 196.864C294.024 197.835 294.126 198.64 294.328 199.28C294.542 199.909 294.83 200.379 295.192 200.688C295.566 200.987 295.987 201.136 296.456 201.136ZM296.456 197.824C296.19 197.824 295.955 197.728 295.752 197.536C295.56 197.344 295.464 197.083 295.464 196.752C295.464 196.421 295.56 196.165 295.752 195.984C295.955 195.792 296.19 195.696 296.456 195.696C296.734 195.696 296.968 195.792 297.16 195.984C297.352 196.165 297.448 196.421 297.448 196.752C297.448 197.083 297.352 197.344 297.16 197.536C296.968 197.728 296.734 197.824 296.456 197.824ZM302.802 202V200.912H305.746V193.392H303.458V192.544C303.863 192.491 304.221 192.427 304.53 192.352C304.839 192.277 305.122 192.197 305.378 192.112C305.634 192.016 305.869 191.909 306.082 191.792H307.058V200.912H309.73V202H302.802ZM315.196 196.368L314.796 192.768L314.764 191.008H316.524L316.492 192.768L316.092 196.368H315.196ZM75.352 220.368L74.952 216.768L74.92 215.008H76.68L76.648 216.768L76.248 220.368H75.352ZM81.7618 226V225.216C82.9138 224.203 83.8844 223.312 84.6738 222.544C85.4738 221.765 86.0818 221.067 86.4978 220.448C86.9138 219.829 87.1218 219.237 87.1218 218.672C87.1218 218.085 86.9404 217.605 86.5778 217.232C86.2151 216.859 85.6551 216.672 84.8978 216.672C84.4178 216.672 83.9698 216.789 83.5538 217.024C83.1484 217.259 82.7804 217.552 82.4498 217.904L81.6978 217.152C82.1564 216.683 82.6471 216.309 83.1698 216.032C83.7031 215.744 84.3324 215.6 85.0578 215.6C85.7404 215.6 86.3271 215.728 86.8178 215.984C87.3191 216.229 87.7031 216.576 87.9698 217.024C88.2471 217.472 88.3858 218 88.3858 218.608C88.3858 219.248 88.1884 219.893 87.7938 220.544C87.3991 221.195 86.8444 221.883 86.1298 222.608C85.4258 223.323 84.6098 224.107 83.6818 224.96C84.0018 224.928 84.3218 224.907 84.6418 224.896C84.9618 224.875 85.2764 224.864 85.5858 224.864H88.9458V226H81.7618ZM94.9875 226.192C94.2302 226.192 93.5795 225.984 93.0355 225.568C92.4915 225.141 92.0702 224.533 91.7715 223.744C91.4728 222.955 91.3235 221.995 91.3235 220.864C91.3235 219.147 91.6488 217.84 92.2995 216.944C92.9608 216.048 93.8568 215.6 94.9875 215.6C96.1288 215.6 97.0248 216.048 97.6755 216.944C98.3262 217.84 98.6515 219.147 98.6515 220.864C98.6515 221.995 98.5022 222.955 98.2035 223.744C97.9155 224.533 97.4942 225.141 96.9395 225.568C96.3955 225.984 95.7448 226.192 94.9875 226.192ZM94.9875 225.136C95.4675 225.136 95.8888 224.987 96.2515 224.688C96.6142 224.379 96.8968 223.909 97.0995 223.28C97.3128 222.64 97.4195 221.835 97.4195 220.864C97.4195 219.883 97.3128 219.083 97.0995 218.464C96.8968 217.845 96.6142 217.392 96.2515 217.104C95.8888 216.805 95.4675 216.656 94.9875 216.656C94.5182 216.656 94.0968 216.805 93.7235 217.104C93.3608 217.392 93.0728 217.845 92.8595 218.464C92.6568 219.083 92.5555 219.883 92.5555 220.864C92.5555 221.835 92.6568 222.64 92.8595 223.28C93.0728 223.909 93.3608 224.379 93.7235 224.688C94.0968 224.987 94.5182 225.136 94.9875 225.136ZM94.9875 221.824C94.7208 221.824 94.4862 221.728 94.2835 221.536C94.0915 221.344 93.9955 221.083 93.9955 220.752C93.9955 220.421 94.0915 220.165 94.2835 219.984C94.4862 219.792 94.7208 219.696 94.9875 219.696C95.2648 219.696 95.4995 219.792 95.6915 219.984C95.8835 220.165 95.9795 220.421 95.9795 220.752C95.9795 221.083 95.8835 221.344 95.6915 221.536C95.4995 221.728 95.2648 221.824 94.9875 221.824ZM100.949 226V225.216C102.101 224.203 103.072 223.312 103.861 222.544C104.661 221.765 105.269 221.067 105.685 220.448C106.101 219.829 106.309 219.237 106.309 218.672C106.309 218.085 106.128 217.605 105.765 217.232C105.403 216.859 104.843 216.672 104.085 216.672C103.605 216.672 103.157 216.789 102.741 217.024C102.336 217.259 101.968 217.552 101.637 217.904L100.885 217.152C101.344 216.683 101.835 216.309 102.357 216.032C102.891 215.744 103.52 215.6 104.245 215.6C104.928 215.6 105.515 215.728 106.005 215.984C106.507 216.229 106.891 216.576 107.157 217.024C107.435 217.472 107.573 218 107.573 218.608C107.573 219.248 107.376 219.893 106.981 220.544C106.587 221.195 106.032 221.883 105.317 222.608C104.613 223.323 103.797 224.107 102.869 224.96C103.189 224.928 103.509 224.907 103.829 224.896C104.149 224.875 104.464 224.864 104.773 224.864H108.133V226H100.949ZM110.927 226V224.912H113.871V217.392H111.583V216.544C111.988 216.491 112.346 216.427 112.655 216.352C112.964 216.277 113.247 216.197 113.503 216.112C113.759 216.016 113.994 215.909 114.207 215.792H115.183V224.912H117.855V226H110.927ZM120.329 221.216V220.224H127.209V221.216H120.329ZM133.363 226.192C132.605 226.192 131.955 225.984 131.411 225.568C130.867 225.141 130.445 224.533 130.147 223.744C129.848 222.955 129.699 221.995 129.699 220.864C129.699 219.147 130.024 217.84 130.674 216.944C131.336 216.048 132.232 215.6 133.363 215.6C134.504 215.6 135.4 216.048 136.051 216.944C136.701 217.84 137.027 219.147 137.027 220.864C137.027 221.995 136.877 222.955 136.579 223.744C136.291 224.533 135.869 225.141 135.315 225.568C134.771 225.984 134.12 226.192 133.363 226.192ZM133.363 225.136C133.843 225.136 134.264 224.987 134.627 224.688C134.989 224.379 135.272 223.909 135.475 223.28C135.688 222.64 135.795 221.835 135.795 220.864C135.795 219.883 135.688 219.083 135.475 218.464C135.272 217.845 134.989 217.392 134.627 217.104C134.264 216.805 133.843 216.656 133.363 216.656C132.893 216.656 132.472 216.805 132.099 217.104C131.736 217.392 131.448 217.845 131.235 218.464C131.032 219.083 130.931 219.883 130.931 220.864C130.931 221.835 131.032 222.64 131.235 223.28C131.448 223.909 131.736 224.379 132.099 224.688C132.472 224.987 132.893 225.136 133.363 225.136ZM133.363 221.824C133.096 221.824 132.861 221.728 132.659 221.536C132.467 221.344 132.371 221.083 132.371 220.752C132.371 220.421 132.467 220.165 132.659 219.984C132.861 219.792 133.096 219.696 133.363 219.696C133.64 219.696 133.875 219.792 134.067 219.984C134.259 220.165 134.355 220.421 134.355 220.752C134.355 221.083 134.259 221.344 134.067 221.536C133.875 221.728 133.64 221.824 133.363 221.824ZM139.708 226V224.912H142.652V217.392H140.364V216.544C140.77 216.491 141.127 216.427 141.436 216.352C141.746 216.277 142.028 216.197 142.284 216.112C142.54 216.016 142.775 215.909 142.988 215.792H143.964V224.912H146.636V226H139.708ZM149.11 221.216V220.224H155.99V221.216H149.11ZM162.144 226.192C161.386 226.192 160.736 225.984 160.192 225.568C159.648 225.141 159.226 224.533 158.928 223.744C158.629 222.955 158.48 221.995 158.48 220.864C158.48 219.147 158.805 217.84 159.456 216.944C160.117 216.048 161.013 215.6 162.144 215.6C163.285 215.6 164.181 216.048 164.832 216.944C165.482 217.84 165.808 219.147 165.808 220.864C165.808 221.995 165.658 222.955 165.36 223.744C165.072 224.533 164.65 225.141 164.096 225.568C163.552 225.984 162.901 226.192 162.144 226.192ZM162.144 225.136C162.624 225.136 163.045 224.987 163.408 224.688C163.77 224.379 164.053 223.909 164.256 223.28C164.469 222.64 164.576 221.835 164.576 220.864C164.576 219.883 164.469 219.083 164.256 218.464C164.053 217.845 163.77 217.392 163.408 217.104C163.045 216.805 162.624 216.656 162.144 216.656C161.674 216.656 161.253 216.805 160.88 217.104C160.517 217.392 160.229 217.845 160.016 218.464C159.813 219.083 159.712 219.883 159.712 220.864C159.712 221.835 159.813 222.64 160.016 223.28C160.229 223.909 160.517 224.379 160.88 224.688C161.253 224.987 161.674 225.136 162.144 225.136ZM162.144 221.824C161.877 221.824 161.642 221.728 161.44 221.536C161.248 221.344 161.152 221.083 161.152 220.752C161.152 220.421 161.248 220.165 161.44 219.984C161.642 219.792 161.877 219.696 162.144 219.696C162.421 219.696 162.656 219.792 162.848 219.984C163.04 220.165 163.136 220.421 163.136 220.752C163.136 221.083 163.04 221.344 162.848 221.536C162.656 221.728 162.421 221.824 162.144 221.824ZM170.554 226C170.596 225.029 170.687 224.144 170.826 223.344C170.964 222.544 171.167 221.792 171.434 221.088C171.7 220.373 172.042 219.68 172.458 219.008C172.874 218.336 173.37 217.643 173.946 216.928H168.058V215.792H175.45V216.608C174.767 217.376 174.207 218.112 173.77 218.816C173.332 219.52 172.986 220.235 172.73 220.96C172.474 221.685 172.282 222.459 172.154 223.28C172.036 224.091 171.962 224.997 171.93 226H170.554ZM180.883 220.368L180.483 216.768L180.451 215.008H182.211L182.179 216.768L181.779 220.368H180.883Z" fill="#FF83A8"/>
<path d="M193.053 132.816C191.944 131.941 191.064 130.901 190.413 129.696C189.773 128.48 189.453 127.099 189.453 125.552C189.453 124.005 189.773 122.624 190.413 121.408C191.064 120.192 191.944 119.152 193.053 118.288L193.773 118.96C192.706 119.856 191.917 120.843 191.405 121.92C190.893 122.997 190.637 124.208 190.637 125.552C190.637 126.896 190.893 128.107 191.405 129.184C191.917 130.251 192.706 131.237 193.773 132.144L193.053 132.816ZM247.208 133.408L246.84 132.576C247.522 132.277 248.029 131.899 248.36 131.44C248.69 130.992 248.856 130.437 248.856 129.776L248.552 128.304L249.448 129.568C249.32 129.717 249.176 129.819 249.016 129.872C248.866 129.915 248.712 129.936 248.552 129.936C248.328 129.936 248.12 129.893 247.928 129.808C247.736 129.712 247.581 129.579 247.464 129.408C247.357 129.227 247.304 129.003 247.304 128.736C247.304 128.341 247.432 128.043 247.688 127.84C247.944 127.627 248.242 127.52 248.584 127.52C249.053 127.52 249.41 127.707 249.656 128.08C249.901 128.443 250.024 128.939 250.024 129.568C250.024 130.507 249.773 131.296 249.272 131.936C248.77 132.587 248.082 133.077 247.208 133.408ZM303.922 132.816L303.202 132.144C304.269 131.237 305.058 130.251 305.57 129.184C306.082 128.107 306.338 126.896 306.338 125.552C306.338 124.208 306.082 122.997 305.57 121.92C305.058 120.843 304.269 119.856 303.202 118.96L303.922 118.288C305.042 119.152 305.922 120.192 306.562 121.408C307.202 122.624 307.522 124.005 307.522 125.552C307.522 127.099 307.202 128.48 306.562 129.696C305.922 130.901 305.042 131.941 303.922 132.816ZM381.52 133.408L381.152 132.576C381.835 132.277 382.341 131.899 382.672 131.44C383.003 130.992 383.168 130.437 383.168 129.776L382.864 128.304L383.76 129.568C383.632 129.717 383.488 129.819 383.328 129.872C383.179 129.915 383.024 129.936 382.864 129.936C382.64 129.936 382.432 129.893 382.24 129.808C382.048 129.712 381.893 129.579 381.776 129.408C381.669 129.227 381.616 129.003 381.616 128.736C381.616 128.341 381.744 128.043 382 127.84C382.256 127.627 382.555 127.52 382.896 127.52C383.365 127.52 383.723 127.707 383.968 128.08C384.213 128.443 384.336 128.939 384.336 129.568C384.336 130.507 384.085 131.296 383.584 131.936C383.083 132.587 382.395 133.077 381.52 133.408ZM164.272 156.816C163.162 155.941 162.282 154.901 161.632 153.696C160.992 152.48 160.672 151.099 160.672 149.552C160.672 148.005 160.992 146.624 161.632 145.408C162.282 144.192 163.162 143.152 164.272 142.288L164.992 142.96C163.925 143.856 163.136 144.843 162.624 145.92C162.112 146.997 161.856 148.208 161.856 149.552C161.856 150.896 162.112 152.107 162.624 153.184C163.136 154.251 163.925 155.237 164.992 156.144L164.272 156.816ZM294.328 156.816L293.608 156.144C294.675 155.237 295.464 154.251 295.976 153.184C296.488 152.107 296.744 150.896 296.744 149.552C296.744 148.208 296.488 146.997 295.976 145.92C295.464 144.843 294.675 143.856 293.608 142.96L294.328 142.288C295.448 143.152 296.328 144.192 296.968 145.408C297.608 146.624 297.928 148.005 297.928 149.552C297.928 151.099 297.608 152.48 296.968 153.696C296.328 154.901 295.448 155.941 294.328 156.816Z" fill="#A8A8B7"/>
<rect x="320" y="39" width="106" height="37" rx="18.5" fill="#DA3466"/>
<path d="M361.651 63.2031C363.978 63.2031 365.732 61.8368 365.732 59.6767C365.732 57.9966 364.661 57.055 362.814 56.2057L361.448 55.5779C360.451 55.0979 359.75 54.7656 359.75 53.8424C359.75 52.8454 360.617 52.3654 361.596 52.3654C362.648 52.3654 363.535 52.9008 364.162 53.8424L365.529 52.7901C364.79 51.5346 363.387 50.6114 361.596 50.6114C359.491 50.6114 357.756 51.9038 357.756 53.9163C357.756 55.7072 359.122 56.6119 360.599 57.295L361.947 57.9227C363.018 58.4212 363.738 58.7905 363.738 59.7505C363.738 60.8029 362.888 61.4491 361.633 61.4491C360.119 61.4491 359.14 60.526 358.439 59.5105L357.054 60.5629C357.977 62.1692 359.62 63.2031 361.651 63.2031ZM384.316 65.234C381.454 65.234 379.387 64.1632 377.725 61.9661C379.276 60.8398 380.291 59.0305 380.291 56.9073C380.291 53.3439 377.411 50.6114 373.885 50.6114C370.34 50.6114 367.497 53.3439 367.497 56.9073C367.497 60.4706 370.321 63.2031 373.885 63.2031C374.66 63.2031 375.417 63.0739 376.119 62.8154C378.02 65.5109 380.771 66.9141 384.002 66.9141C384.778 66.9141 385.461 66.8218 386.052 66.711V65.1602C385.424 65.1971 384.796 65.234 384.316 65.234ZM369.527 56.8888C369.527 54.304 371.374 52.4023 373.885 52.4023C376.414 52.4023 378.279 54.3225 378.279 56.9073C378.279 59.5105 376.396 61.4122 373.903 61.4122C371.374 61.4122 369.527 59.5105 369.527 56.8888ZM382.641 63H390.174V61.246H384.598V50.8145H382.641V63Z" fill="white"/>
</svg>
