<svg xmlns="http://www.w3.org/2000/svg" width="1248" height="400" fill="none"><path fill="url(#a)" fill-rule="evenodd" d="M1092 40.152C960.177 110.87 798.587 152.501 624 152.501S287.823 110.87 156 40.152V359.85c131.823-70.717 293.413-112.349 468-112.349s336.177 41.632 468 112.349V40.152Z" clip-rule="evenodd" opacity=".3"/><circle cx="222" cy="260.002" r="13" fill="#484858"/><circle cx="256.5" cy="66.5" r="26.5" fill="#484858"/><circle cx="353.5" cy="199.5" r="9.5" fill="#484858"/><circle cx="222.5" cy="143.5" r="13.5" fill="#484858"/><g filter="url(#b)"><circle cx="311" cy="263" r="19" fill="#484858"/></g><circle cx="337.5" cy="332.5" r="9.5" fill="#484858"/><circle cx="260" cy="334" r="29" fill="#484858"/><circle cx="346.5" cy="78.5" r="13.5" fill="#484858"/><g filter="url(#c)"><circle cx="308" cy="139" r="25" fill="#484858"/></g><rect width="260" height="260" x="494" y="69.859" fill="#232336" rx="32"/><mask id="d" width="260" height="261" x="494" y="69" maskUnits="userSpaceOnUse" style="mask-type:alpha"><rect width="260" height="260" x="494" y="69.859" fill="#232336" rx="32"/></mask><g filter="url(#e)" mask="url(#d)" opacity=".3"><path fill="url(#f)" fill-rule="evenodd" d="M1092 40.016c-131.823 70.717-293.413 112.349-468 112.349s-336.177-41.632-468-112.35v319.698c131.823-70.717 293.413-112.348 468-112.348s336.177 41.631 468 112.348V40.016Z" clip-rule="evenodd"/></g><path fill="#A8A8B7" d="m246.706 205-2.736-3.728h-1.584V205h-2.16v-10.56h3.968c.736 0 1.392.144 1.968.432a3.123 3.123 0 0 1 1.344 1.2c.33.512.496 1.104.496 1.776 0 .672-.166 1.269-.496 1.792a3.34 3.34 0 0 1-1.36 1.216l2.992 4.144h-2.432Zm-4.32-5.632h1.808c.501 0 .89-.139 1.168-.416.288-.277.432-.645.432-1.104 0-.448-.144-.811-.432-1.088-.288-.277-.678-.416-1.168-.416h-1.808v3.024Zm11.182-2.464c1.035 0 1.856.293 2.464.88.619.576.928 1.413.928 2.512V205h-1.984v-.768c-.288.299-.64.533-1.056.704a3.467 3.467 0 0 1-1.36.256c-.843 0-1.509-.219-2-.656-.491-.448-.736-1.019-.736-1.712 0-.715.267-1.275.8-1.68.544-.416 1.275-.624 2.192-.624h1.984v-.352c0-.437-.128-.779-.384-1.024-.245-.245-.608-.368-1.088-.368-.405 0-.768.091-1.088.272-.32.171-.656.443-1.008.816l-1.12-1.328c.917-1.088 2.069-1.632 3.456-1.632Zm-.432 6.704c.469 0 .864-.144 1.184-.432.32-.299.48-.677.48-1.136v-.096h-1.696c-.352 0-.624.069-.816.208-.192.128-.288.325-.288.592 0 .267.101.48.304.64.213.149.491.224.832.224Zm18.198-6.528-3.68 8.112h-.704l-2.272-4.608-2.288 4.608h-.704l-3.68-8.112h2.272l1.872 4.512 2.16-4.688h.72l2.192 4.592 1.84-4.416h2.272Zm6.219-2.64h3.456c1.12 0 2.118.219 2.992.656.875.437 1.552 1.051 2.032 1.84.491.789.736 1.707.736 2.752 0 1.024-.245 1.941-.736 2.752-.48.8-1.157 1.429-2.032 1.888-.874.448-1.872.672-2.992.672h-3.456v-10.56Zm3.44 8.608c.704 0 1.323-.139 1.856-.416a2.94 2.94 0 0 0 1.248-1.168c.299-.512.448-1.104.448-1.776 0-1.024-.325-1.829-.976-2.416-.64-.587-1.498-.88-2.576-.88h-1.28v6.656h1.28Zm10.871-6.144c1.035 0 1.856.293 2.464.88.619.576.928 1.413.928 2.512V205h-1.984v-.768c-.288.299-.64.533-1.056.704a3.467 3.467 0 0 1-1.36.256c-.843 0-1.509-.219-2-.656-.491-.448-.736-1.019-.736-1.712 0-.715.267-1.275.8-1.68.544-.416 1.275-.624 2.192-.624h1.984v-.352c0-.437-.128-.779-.384-1.024-.245-.245-.608-.368-1.088-.368-.405 0-.768.091-1.088.272-.32.171-.656.443-1.008.816l-1.12-1.328c.917-1.088 2.069-1.632 3.456-1.632Zm-.432 6.704c.469 0 .864-.144 1.184-.432.32-.299.48-.677.48-1.136v-.096H291.4c-.352 0-.624.069-.816.208-.192.128-.288.325-.288.592 0 .267.101.48.304.64.213.149.491.224.832.224Zm11.151-.416V205a6.127 6.127 0 0 1-1.488.192c-1.003 0-1.781-.245-2.336-.736-.555-.501-.832-1.248-.832-2.24v-3.312h-1.248v-1.824h1.248v-2h2.16v2h2.24v1.824h-2.24v3.12c0 .448.117.768.352.96.235.181.608.272 1.12.272.128 0 .469-.021 1.024-.064Zm4.976-6.288c1.035 0 1.856.293 2.464.88.619.576.928 1.413.928 2.512V205h-1.984v-.768c-.288.299-.64.533-1.056.704a3.467 3.467 0 0 1-1.36.256c-.843 0-1.509-.219-2-.656-.491-.448-.736-1.019-.736-1.712 0-.715.267-1.275.8-1.68.544-.416 1.275-.624 2.192-.624h1.984v-.352c0-.437-.128-.779-.384-1.024-.245-.245-.608-.368-1.088-.368-.405 0-.768.091-1.088.272-.32.171-.656.443-1.008.816l-1.12-1.328c.917-1.088 2.069-1.632 3.456-1.632Zm-.432 6.704c.469 0 .864-.144 1.184-.432.32-.299.48-.677.48-1.136v-.096h-1.696c-.352 0-.624.069-.816.208-.192.128-.288.325-.288.592 0 .267.101.48.304.64.213.149.491.224.832.224Z"/><path fill="#FFAA2B" fill-rule="evenodd" d="M624 157.999c12.15 0 22-9.85 22-22 0-12.151-9.85-22-22-22s-22 9.849-22 22c0 12.15 9.85 22 22 22Zm-7.905-21.379 7.212-12.655c.811-1.423 2.754-.585 2.533 1.093l-1.037 7.89h5.937c1.1 0 1.762 1.387 1.163 2.437l-7.212 12.654c-.811 1.424-2.754.586-2.533-1.092l1.037-7.89h-5.937c-1.1 0-1.762-1.387-1.163-2.437ZM624 221.999c12.15 0 22-9.85 22-22 0-12.151-9.85-22-22-22s-22 9.849-22 22c0 12.15 9.85 22 22 22Zm-7.905-21.379 7.212-12.655c.811-1.423 2.754-.585 2.533 1.093l-1.037 7.89h5.937c1.1 0 1.762 1.387 1.163 2.437l-7.212 12.654c-.811 1.424-2.754.586-2.533-1.092l1.037-7.89h-5.937c-1.1 0-1.762-1.387-1.163-2.437ZM688 157.999c12.15 0 22-9.85 22-22 0-12.151-9.85-22-22-22s-22 9.849-22 22c0 12.15 9.85 22 22 22Zm-7.905-21.379 7.212-12.655c.811-1.423 2.754-.585 2.533 1.093l-1.037 7.89h5.937c1.1 0 1.762 1.387 1.163 2.437l-7.212 12.654c-.811 1.424-2.754.586-2.533-1.092l1.037-7.89h-5.937c-1.1 0-1.762-1.387-1.163-2.437ZM688 221.999c12.15 0 22-9.85 22-22 0-12.151-9.85-22-22-22s-22 9.849-22 22c0 12.15 9.85 22 22 22Zm-7.905-21.379 7.212-12.655c.811-1.423 2.754-.585 2.533 1.093l-1.037 7.89h5.937c1.1 0 1.762 1.387 1.163 2.437l-7.212 12.654c-.811 1.424-2.754.586-2.533-1.092l1.037-7.89h-5.937c-1.1 0-1.762-1.387-1.163-2.437ZM560 157.999c12.15 0 22-9.85 22-22 0-12.151-9.85-22-22-22s-22 9.849-22 22c0 12.15 9.85 22 22 22Zm-7.905-21.379 7.212-12.655c.811-1.423 2.754-.585 2.533 1.093l-1.037 7.89h5.937c1.1 0 1.762 1.387 1.163 2.437l-7.212 12.654c-.811 1.424-2.754.586-2.533-1.092l1.037-7.89h-5.937c-1.1 0-1.762-1.387-1.163-2.437ZM560 221.999c12.15 0 22-9.85 22-22 0-12.151-9.85-22-22-22s-22 9.849-22 22c0 12.15 9.85 22 22 22Zm-7.905-21.379 7.212-12.655c.811-1.423 2.754-.585 2.533 1.093l-1.037 7.89h5.937c1.1 0 1.762 1.387 1.163 2.437l-7.212 12.654c-.811 1.424-2.754.586-2.533-1.092l1.037-7.89h-5.937c-1.1 0-1.762-1.387-1.163-2.437ZM624 285.999c12.15 0 22-9.85 22-22 0-12.151-9.85-22-22-22s-22 9.849-22 22c0 12.15 9.85 22 22 22Zm-7.905-21.379 7.212-12.655c.811-1.423 2.754-.585 2.533 1.093l-1.037 7.89h5.937c1.1 0 1.762 1.387 1.163 2.437l-7.212 12.654c-.811 1.424-2.754.586-2.533-1.092l1.037-7.89h-5.937c-1.1 0-1.762-1.387-1.163-2.437ZM688 285.999c12.15 0 22-9.85 22-22 0-12.151-9.85-22-22-22s-22 9.849-22 22c0 12.15 9.85 22 22 22Zm-7.905-21.379 7.212-12.655c.811-1.423 2.754-.585 2.533 1.093l-1.037 7.89h5.937c1.1 0 1.762 1.387 1.163 2.437l-7.212 12.654c-.811 1.424-2.754.586-2.533-1.092l1.037-7.89h-5.937c-1.1 0-1.762-1.387-1.163-2.437ZM560 285.999c12.15 0 22-9.85 22-22 0-12.151-9.85-22-22-22s-22 9.849-22 22c0 12.15 9.85 22 22 22Zm-7.905-21.379 7.212-12.655c.811-1.423 2.754-.585 2.533 1.093l-1.037 7.89h5.937c1.1 0 1.762 1.387 1.163 2.437l-7.212 12.654c-.811 1.424-2.754.586-2.533-1.092l1.037-7.89h-5.937c-1.1 0-1.762-1.387-1.163-2.437Z" clip-rule="evenodd"/><path fill="#F6F6F8" d="M591.716 368.44h3.456c1.12 0 2.117.219 2.992.656.875.437 1.552 1.051 2.032 1.84.491.789.736 1.707.736 2.752 0 1.024-.245 1.941-.736 2.752-.48.8-1.157 1.429-2.032 1.888-.875.448-1.872.672-2.992.672h-3.456v-10.56Zm3.44 8.608c.704 0 1.323-.139 1.856-.416a2.94 2.94 0 0 0 1.248-1.168c.299-.512.448-1.104.448-1.776 0-1.024-.325-1.829-.976-2.416-.64-.587-1.499-.88-2.576-.88h-1.28v6.656h1.28Zm10.871-6.144c1.035 0 1.856.293 2.464.88.619.576.928 1.413.928 2.512V379h-1.984v-.768c-.288.299-.64.533-1.056.704a3.467 3.467 0 0 1-1.36.256c-.843 0-1.509-.219-2-.656-.491-.448-.736-1.019-.736-1.712 0-.715.267-1.275.8-1.68.544-.416 1.275-.624 2.192-.624h1.984v-.352c0-.437-.128-.779-.384-1.024-.245-.245-.608-.368-1.088-.368-.405 0-.768.091-1.088.272-.32.171-.656.443-1.008.816l-1.12-1.328c.917-1.088 2.069-1.632 3.456-1.632Zm-.432 6.704c.469 0 .864-.144 1.184-.432.32-.299.48-.677.48-1.136v-.096h-1.696c-.352 0-.624.069-.816.208-.192.128-.288.325-.288.592 0 .267.101.48.304.64.213.149.491.224.832.224Zm11.151-.416V379a6.127 6.127 0 0 1-1.488.192c-1.003 0-1.782-.245-2.336-.736-.555-.501-.832-1.248-.832-2.24v-3.312h-1.248v-1.824h1.248v-2h2.16v2h2.24v1.824h-2.24v3.12c0 .448.117.768.352.96.234.181.608.272 1.12.272.128 0 .469-.021 1.024-.064Zm4.976-6.288c1.035 0 1.856.293 2.464.88.619.576.928 1.413.928 2.512V379h-1.984v-.768c-.288.299-.64.533-1.056.704a3.467 3.467 0 0 1-1.36.256c-.843 0-1.509-.219-2-.656-.491-.448-.736-1.019-.736-1.712 0-.715.267-1.275.8-1.68.544-.416 1.275-.624 2.192-.624h1.984v-.352c0-.437-.128-.779-.384-1.024-.245-.245-.608-.368-1.088-.368-.405 0-.768.091-1.088.272-.32.171-.656.443-1.008.816l-1.12-1.328c.917-1.088 2.069-1.632 3.456-1.632Zm-.432 6.704c.469 0 .864-.144 1.184-.432.32-.299.48-.677.48-1.136v-.096h-1.696c-.352 0-.624.069-.816.208-.192.128-.288.325-.288.592 0 .267.101.48.304.64.213.149.491.224.832.224Zm8.623 1.584c-.694 0-1.323-.133-1.888-.4a3.812 3.812 0 0 1-1.392-1.136l1.088-1.312c.693.715 1.434 1.072 2.224 1.072.288 0 .528-.053.72-.16a.552.552 0 0 0 .288-.496.43.43 0 0 0-.192-.384c-.118-.096-.326-.208-.624-.336l-.848-.352c-.726-.299-1.27-.629-1.632-.992-.352-.363-.528-.837-.528-1.424 0-.747.266-1.328.8-1.744.544-.416 1.248-.624 2.112-.624 1.184 0 2.133.395 2.848 1.184l-1.088 1.328c-.534-.501-1.126-.752-1.776-.752-.267 0-.475.048-.624.144a.464.464 0 0 0-.224.416c0 .149.058.272.176.368.128.096.346.208.656.336l.768.32c.768.309 1.328.645 1.68 1.008.362.352.544.821.544 1.408 0 .789-.294 1.408-.88 1.856-.576.448-1.312.672-2.208.672Zm12.161-3.424h-5.552c.128.501.384.891.768 1.168.395.267.88.4 1.456.4.779 0 1.515-.267 2.208-.8l.896 1.472c-.939.789-1.995 1.184-3.168 1.184-.821 0-1.563-.181-2.224-.544a4.01 4.01 0 0 1-1.552-1.488 4.12 4.12 0 0 1-.56-2.112c0-.768.181-1.467.544-2.096a3.958 3.958 0 0 1 1.488-1.504 4.206 4.206 0 0 1 2.112-.544c.725 0 1.371.165 1.936.496.565.32 1.003.763 1.312 1.328.32.555.48 1.173.48 1.856 0 .384-.048.779-.144 1.184Zm-3.664-3.12c-.459 0-.859.144-1.2.432-.341.288-.571.677-.688 1.168h3.6c-.011-.491-.181-.88-.512-1.168a1.766 1.766 0 0 0-1.2-.432Zm10.741 4.544V379a6.127 6.127 0 0 1-1.488.192c-1.002 0-1.781-.245-2.336-.736-.554-.501-.832-1.248-.832-2.24v-3.312h-1.248v-1.824h1.248v-2h2.16v2h2.24v1.824h-2.24v3.12c0 .448.118.768.352.96.235.181.608.272 1.12.272.128 0 .47-.021 1.024-.064Zm4.288 2a4.369 4.369 0 0 1-1.888-.4 3.829 3.829 0 0 1-1.392-1.136l1.088-1.312c.694.715 1.435 1.072 2.224 1.072.288 0 .528-.053.72-.16a.552.552 0 0 0 .288-.496.43.43 0 0 0-.192-.384c-.117-.096-.325-.208-.624-.336l-.848-.352c-.725-.299-1.269-.629-1.632-.992-.352-.363-.528-.837-.528-1.424 0-.747.267-1.328.8-1.744.544-.416 1.248-.624 2.112-.624 1.184 0 2.134.395 2.848 1.184l-1.088 1.328c-.533-.501-1.125-.752-1.776-.752-.266 0-.474.048-.624.144a.466.466 0 0 0-.224.416c0 .149.059.272.176.368.128.096.347.208.656.336l.768.32c.768.309 1.328.645 1.68 1.008.363.352.544.821.544 1.408 0 .789-.293 1.408-.88 1.856-.576.448-1.312.672-2.208.672Z"/><rect width="144" height="144" x="936" y="128" fill="#fff" fill-opacity=".08" rx="19.206"/><circle cx="956" cy="147" r="3" fill="#FF646D"/><circle cx="966" cy="147" r="3" fill="#FBBC05"/><circle cx="975" cy="147" r="3" fill="#67C082"/><g clip-path="url(#g)"><path fill="#fff" fill-opacity=".08" d="M979 208h-14v28h14v-28Z"/><path fill="#FFAA2A" d="M979 231h-14v12h14v-12Z"/></g><g clip-path="url(#h)"><path fill="#fff" fill-opacity=".08" d="M1003 172h-14v60h14v-60Z"/><path fill="#FFAA2A" d="M1003 224h-14v19h14v-19Z"/></g><g clip-path="url(#i)"><path fill="#fff" fill-opacity=".08" d="M1028 208h-14v24h14v-24Z"/><path fill="#FFAA2A" d="M1028 231h-14v12h14v-12Z"/></g><g clip-path="url(#j)"><path fill="#fff" fill-opacity=".08" d="M1052 200h-14v36h14v-36Z"/><path fill="#FFAA2A" d="M1052 233h-14v10h14v-10Z"/></g><path fill="#FF6492" d="M599.919 23.54 587.191 16v5.217l12.728 7.509V23.54Z"/><path fill="#141446" d="M599.918 28.726 596.1 31l-8.912-5.27-5.092 3-3.819-2.108 8.913-5.404 12.728 7.508Z"/><path fill="#A14474" d="m582.096 28.73-3.819-2.108V31l3.819-2.27Z"/><path fill="#141446" d="m574.459 38.46 12.73-7.46 12.729 7.46L587.189 46l-12.73-7.54Z"/><path fill="#FF6492" d="m599.917 33.283-12.729-7.634V31l12.729 7.46v-5.177Z"/><path fill="#7A77FF" d="M578.278 31v-4.378l8.913-5.405V16l-12.732 7.54v14.92l12.73-7.46v-5.351L578.278 31Z"/><path stroke="#fff" stroke-linejoin="round" stroke-opacity=".24" stroke-width=".971" d="m597.052 30.998 3.115-1.855a.485.485 0 0 0 .237-.417V23.54a.487.487 0 0 0-.238-.418l-12.728-7.54a.484.484 0 0 0-.494 0l-12.732 7.54a.484.484 0 0 0-.238.418v14.918c0 .172.09.33.238.418l12.729 7.54c.153.091.342.091.495 0l12.73-7.54a.487.487 0 0 0 .238-.418v-5.176c0-.17-.09-.329-.236-.417l-3.116-1.868Z"/><path fill="#fff" d="M607.812 31.671c0-4.51 3.503-8.02 7.918-8.02 2.832 0 5.024 1.41 6.303 3.571l-2.253 1.817c-.975-1.41-2.223-2.35-4.018-2.35-2.742 0-4.69 2.193-4.69 4.98 0 2.85 1.948 5.01 4.69 5.01 1.766 0 3.014-.907 4.018-2.317l2.253 1.786c-1.309 2.16-3.503 3.57-6.303 3.57-4.415.003-7.918-3.506-7.918-8.047ZM624.805 32.922v-8.926h3.166v9.177c0 2.16 1.491 3.507 3.38 3.507 1.828 0 3.29-1.347 3.29-3.508v-9.176h3.198v8.926c0 4.167-2.833 6.797-6.486 6.797-3.716 0-6.548-2.63-6.548-6.797ZM657.237 31.702c0 4.573-3.075 8.019-7.308 8.019-2.194 0-4.112-.907-5.237-2.474v2.13h-2.985V15.885h3.198v9.993c1.128-1.41 2.924-2.224 4.994-2.224 4.263-.002 7.338 3.474 7.338 8.048Zm-3.289-.03c0-2.977-2.01-5.011-4.569-5.011-2.253 0-4.508 1.566-4.508 5.043 0 3.507 2.285 5.01 4.508 5.01 2.589 0 4.569-2.067 4.569-5.043ZM673.772 32.768h-11.145c.427 2.536 2.314 4.04 4.871 4.04 1.737 0 3.105-.69 4.355-1.817l1.523 2.256c-1.584 1.534-3.593 2.474-5.969 2.474-4.628 0-8.04-3.477-8.04-8.02 0-4.51 3.38-8.05 7.736-8.05 3.989 0 6.912 3.008 6.912 7.048a10 10 0 0 1-.243 2.069Zm-11.084-2.57h8.131c-.061-2.413-1.796-3.76-3.837-3.76-2.103.003-3.807 1.474-4.294 3.76Z"/><defs><clipPath id="g"><rect width="14" height="35" x="965" y="208" fill="#fff" rx="1.2"/></clipPath><clipPath id="h"><rect width="14" height="71" x="989" y="172" fill="#fff" rx="1.2"/></clipPath><clipPath id="i"><rect width="14" height="35" x="1014" y="208" fill="#fff" rx="1.2"/></clipPath><clipPath id="j"><rect width="14" height="43" x="1038" y="200" fill="#fff" rx="1.2"/></clipPath><filter id="b" width="62" height="62" x="280" y="232" color-interpolation-filters="sRGB" filterUnits="userSpaceOnUse"><feFlood flood-opacity="0" result="BackgroundImageFix"/><feGaussianBlur in="BackgroundImageFix" stdDeviation="6"/><feComposite in2="SourceAlpha" operator="in" result="effect1_backgroundBlur_887_47870"/><feBlend in="SourceGraphic" in2="effect1_backgroundBlur_887_47870" result="shape"/></filter><filter id="c" width="74" height="74" x="271" y="102" color-interpolation-filters="sRGB" filterUnits="userSpaceOnUse"><feFlood flood-opacity="0" result="BackgroundImageFix"/><feGaussianBlur in="BackgroundImageFix" stdDeviation="6"/><feComposite in2="SourceAlpha" operator="in" result="effect1_backgroundBlur_887_47870"/><feBlend in="SourceGraphic" in2="effect1_backgroundBlur_887_47870" result="shape"/></filter><filter id="e" width="992" height="375.698" x="128" y="12.016" color-interpolation-filters="sRGB" filterUnits="userSpaceOnUse"><feFlood flood-opacity="0" result="BackgroundImageFix"/><feBlend in="SourceGraphic" in2="BackgroundImageFix" result="shape"/><feGaussianBlur result="effect1_foregroundBlur_887_47870" stdDeviation="14"/></filter><linearGradient id="a" x1="167.875" x2="1040" y1="210.521" y2="210.521" gradientUnits="userSpaceOnUse"><stop stop-color="#fff" stop-opacity="0"/><stop offset=".51" stop-color="#FDA21A" stop-opacity=".83"/><stop offset="1" stop-color="#fff" stop-opacity="0"/></linearGradient><linearGradient id="f" x1="167.875" x2="1040" y1="210.384" y2="210.384" gradientUnits="userSpaceOnUse"><stop stop-color="#fff" stop-opacity="0"/><stop offset=".51" stop-color="#FDA21A" stop-opacity=".83"/><stop offset="1" stop-color="#fff" stop-opacity="0"/></linearGradient></defs></svg>