<svg xmlns="http://www.w3.org/2000/svg" width="149" height="121" fill="none"><g clip-path="url(#a)"><path fill="#FFAA2B" d="m106.509 54.763-36.074 57.633c-1.73 2.763-6.005 1.196-5.539-2.031l8.325-57.632a3.014 3.014 0 0 1 2.983-2.583h27.749c2.369 0 3.812 2.606 2.556 4.613Z"/><path stroke="url(#b)" stroke-width="4" d="M50.5 45.055C22.673 58.635 4.96 76.63 9.432 88.282c5.21 13.57 38.538 13.399 74.442-.383 35.903-13.783 60.786-35.956 55.577-49.526-4.423-11.523-29.119-13.138-58.45-4.926"/><path fill="#FFAA2B" d="M40.679 66.955 76.753 9.323c1.73-2.763 6.004-1.196 5.538 2.03l-8.324 57.633a3.014 3.014 0 0 1-2.984 2.583H43.234c-2.368 0-3.812-2.606-2.555-4.614Z"/></g><defs><linearGradient id="b" x1="83.883" x2="65" y1="87.298" y2="39.362" gradientUnits="userSpaceOnUse"><stop offset=".49" stop-color="#453659"/><stop offset="1" stop-color="#453659" stop-opacity="0"/></linearGradient><clipPath id="a"><path fill="#fff" d="M0 .86h149v120H0z"/></clipPath></defs></svg>