<svg xmlns="http://www.w3.org/2000/svg" width="250" height="121" fill="none"><rect width="78" height="78" x="88" y="19.859" fill="#F6F6F8" fill-opacity=".12" rx="16"/><path fill="#FF6492" d="m145.16 47.549-18.584-10.557v7.305l18.584 10.511v-7.26Z"/><path fill="#141446" d="m145.159 54.812-5.575 3.185-13.012-7.379-7.435 4.2-5.576-2.951 13.014-7.566 18.584 10.511Z"/><path fill="#A14474" d="m119.137 54.813-5.576-2.951v6.13l5.576-3.18Z"/><path fill="#141446" d="m107.984 68.436 18.588-10.444 18.587 10.444-18.587 10.556-18.588-10.556Z"/><path fill="#FF6492" d="M145.159 61.188 126.572 50.5v7.492l18.587 10.444v-7.248Z"/><path fill="#7A77FF" d="M113.561 57.992v-6.13l13.014-7.566v-7.304L107.984 47.55v20.886l18.588-10.443V50.5l-13.011 7.492Z"/><rect width="106" height="37" y=".859" fill="#7A77FF" rx="18.5"/><path fill="#fff" d="M21.923 24.563c2.511 0 4.634-1.311 5.687-3.213v-3.434h-5.705v1.735h3.747v1.311c-.738 1.108-1.994 1.846-3.637 1.846-2.658 0-4.486-1.938-4.486-4.56 0-2.566 1.772-4.486 4.376-4.486 1.587 0 2.787.72 3.637 1.92l1.421-1.163c-1.144-1.607-2.898-2.548-5.04-2.548-3.6 0-6.425 2.732-6.425 6.296 0 3.563 2.806 6.296 6.425 6.296Zm12.409-9.361c-1.034 0-1.994.443-2.64 1.274v-1.182h-1.81v9.065h1.939v-4.837c0-1.68 1.218-2.51 2.659-2.51h.59v-1.718a2.672 2.672 0 0 0-.738-.092Zm5.783-.111c-1.532 0-2.88.61-3.822 1.939l1.126 1.144c.72-.849 1.459-1.348 2.511-1.348 1.237 0 1.939.684 1.939 1.94v.59h-2.566c-2.031 0-3.342.997-3.342 2.585 0 1.57 1.255 2.622 3.157 2.622 1.255 0 2.252-.444 2.899-1.22v1.016h1.809v-5.483c0-2.511-1.532-3.785-3.711-3.785Zm-.59 7.976c-.887 0-1.589-.406-1.589-1.2 0-.739.573-1.108 1.607-1.108h2.326v.166c0 1.237-1.07 2.142-2.345 2.142Zm11.965-7.976c-1.329 0-2.492.536-3.157 1.477v-1.274h-1.809v12.389h1.939v-4.431c.701.83 1.79 1.31 3.027 1.31 2.585 0 4.45-2.03 4.45-4.745 0-2.695-1.865-4.726-4.45-4.726Zm-.313 7.699c-1.367 0-2.733-.923-2.733-2.973 0-2.067 1.385-2.954 2.733-2.954 1.569 0 2.77 1.219 2.77 2.973 0 1.754-1.22 2.954-2.77 2.954Zm11.555-7.699c-1.108 0-2.013.406-2.622 1.108v-5.687h-1.938V24.36h1.938v-5.39c0-1.238.868-2.106 2.068-2.106 1.2 0 1.975.85 1.975 2.105v5.391h1.939v-5.668c0-2.123-1.274-3.6-3.36-3.6Zm22.27 11.502c-2.862 0-4.93-1.07-6.592-3.267a6.189 6.189 0 0 0 2.567-5.06c0-3.563-2.88-6.295-6.407-6.295-3.545 0-6.388 2.732-6.388 6.296 0 3.563 2.825 6.296 6.388 6.296a6.46 6.46 0 0 0 2.234-.388c1.902 2.695 4.653 4.098 7.884 4.098.775 0 1.458-.092 2.05-.203v-1.55c-.629.037-1.256.073-1.737.073Zm-14.79-8.345c0-2.585 1.847-4.486 4.358-4.486 2.53 0 4.394 1.92 4.394 4.505 0 2.603-1.883 4.505-4.376 4.505-2.529 0-4.375-1.902-4.375-4.524Zm13.114 6.111h7.533v-1.754h-5.575V12.174h-1.958v12.185Z"/><rect width="80" height="38" x="21" y="79.859" fill="#7A77FF" rx="19"/><path fill="#fff" d="M49.151 104.062c2.327 0 4.08-1.366 4.08-3.526 0-1.68-1.07-2.622-2.916-3.47l-1.367-.629c-.997-.48-1.698-.812-1.698-1.735 0-.997.867-1.477 1.846-1.477 1.052 0 1.939.535 2.566 1.477l1.367-1.053c-.739-1.255-2.142-2.178-3.933-2.178-2.105 0-3.84 1.292-3.84 3.305 0 1.79 1.366 2.695 2.843 3.378l1.348.628c1.07.499 1.79.868 1.79 1.828 0 1.052-.849 1.698-2.104 1.698-1.514 0-2.493-.923-3.194-1.938l-1.385 1.052c.923 1.607 2.566 2.64 4.597 2.64Zm22.665 2.031c-2.862 0-4.93-1.07-6.591-3.268a6.188 6.188 0 0 0 2.566-5.058c0-3.564-2.88-6.296-6.406-6.296-3.545 0-6.388 2.732-6.388 6.296 0 3.563 2.824 6.295 6.388 6.295.775 0 1.532-.129 2.234-.387 1.901 2.695 4.652 4.098 7.883 4.098.776 0 1.459-.092 2.05-.203v-1.55c-.628.036-1.256.073-1.736.073Zm-14.788-8.345c0-2.585 1.846-4.486 4.357-4.486 2.53 0 4.394 1.92 4.394 4.505 0 2.603-1.883 4.505-4.376 4.505-2.53 0-4.375-1.902-4.375-4.524Zm13.113 6.111h7.533v-1.754h-5.576V91.674h-1.957v12.185Z"/><rect width="91" height="38" x="159" y="39.859" fill="#7A77FF" rx="19"/><path fill="#fff" d="m194.31 63.86-3.655-5.023c1.458-.553 2.345-1.827 2.345-3.434 0-2.215-1.662-3.73-4.136-3.73h-4.45V63.86h1.957v-4.708h2.234l3.471 4.708h2.234Zm-7.939-10.45h2.456c1.385 0 2.16.83 2.16 2.012 0 1.163-.775 1.994-2.16 1.994h-2.456v-4.007Zm9.691 10.45h8.234v-1.755h-6.277v-3.858h4.56v-1.699h-4.56v-3.12h6.056v-1.754h-8.013v12.185Zm14.241.203c2.326 0 4.08-1.367 4.08-3.527 0-1.68-1.071-2.622-2.917-3.47l-1.366-.629c-.997-.48-1.699-.812-1.699-1.735 0-.997.868-1.477 1.846-1.477 1.053 0 1.939.535 2.567 1.477l1.366-1.053c-.739-1.255-2.142-2.178-3.933-2.178-2.104 0-3.84 1.292-3.84 3.305 0 1.79 1.366 2.695 2.843 3.378l1.348.628c1.071.499 1.791.868 1.791 1.828 0 1.052-.849 1.699-2.105 1.699-1.514 0-2.492-.924-3.194-1.94l-1.384 1.053c.923 1.607 2.566 2.64 4.597 2.64Zm9.445-.204h1.957V53.428h4.118v-1.754H215.65v1.754h4.098v10.431Z"/></svg>