<svg xmlns="http://www.w3.org/2000/svg" width="135" height="121" fill="none"><g clip-path="url(#a)"><rect width="54" height="54" x="75" y="7.859" fill="url(#b)" opacity=".7" rx="8"/><rect width="46" height="46" x="6" y="20.859" fill="url(#c)" opacity=".6" rx="8"/><rect width="67" height="67" x="31" y="34.859" fill="url(#d)" rx="8"/><ellipse cx="97.141" cy="66.744" fill="#CA6B13" rx="13.764" ry="21.408" transform="rotate(-38.25 97.141 66.744)"/><ellipse cx="99.21" cy="65.103" fill="#FFBA52" rx="13.764" ry="21.408" transform="rotate(-38.25 99.21 65.103)"/><path stroke="#CA6B13" stroke-width="1.5" d="M107.781 58.102c3.033 3.847 4.743 8.102 5.086 11.846.345 3.753-.684 6.888-2.98 8.698-2.297 1.811-5.586 2.079-9.154.868-3.56-1.208-7.299-3.864-10.332-7.711-3.032-3.847-4.742-8.102-5.086-11.846-.344-3.753.684-6.888 2.981-8.699 2.297-1.81 5.585-2.078 9.154-.867 3.56 1.208 7.298 3.864 10.331 7.71Z"/><ellipse cx="14.393" cy="22.386" fill="#CA6B13" rx="14.393" ry="22.386" transform="scale(-1 1) rotate(-38.25 101.326 130.012)"/><ellipse cx="14.393" cy="22.386" fill="#FFBA52" rx="14.393" ry="22.386" transform="scale(-1 1) rotate(-38.25 99.928 126.038)"/><path stroke="#CA6B13" stroke-width="1.5" d="M22.421 90.25c-3.174 4.027-4.966 8.483-5.325 12.405-.36 3.931.716 7.223 3.13 9.126 2.414 1.903 5.865 2.181 9.604.913 3.73-1.266 7.644-4.047 10.819-8.075 3.175-4.027 4.966-8.482 5.325-12.405.361-3.931-.715-7.222-3.13-9.126-2.413-1.902-5.865-2.18-9.604-.912-3.73 1.265-7.644 4.047-10.819 8.074Z"/><ellipse cx="9.285" cy="14.441" fill="#CA6B13" rx="9.285" ry="14.441" transform="scale(-1 1) rotate(-38.25 -15.288 93.252)"/><ellipse cx="9.285" cy="14.441" fill="#FFBA52" rx="9.285" ry="14.441" transform="scale(-1 1) rotate(-38.25 -16.202 90.683)"/><path stroke="#CA6B13" stroke-width="1.4" d="M37.756 10.434c-2.026 2.57-3.162 5.405-3.39 7.888-.228 2.491.457 4.53 1.938 5.698 1.48 1.167 3.623 1.357 5.992.554 2.361-.801 4.853-2.568 6.88-5.138 2.025-2.57 3.162-5.406 3.39-7.889.228-2.49-.458-4.53-1.938-5.697-1.481-1.168-3.624-1.358-5.993-.554-2.36.8-4.853 2.568-6.879 5.138Z"/></g><defs><linearGradient id="b" x1="102.4" x2="102.4" y1="-14.093" y2="80.372" gradientUnits="userSpaceOnUse"><stop offset=".544" stop-color="#453659"/><stop offset="1" stop-color="#453659" stop-opacity="0"/></linearGradient><linearGradient id="c" x1="29.341" x2="29.341" y1="2.159" y2="82.629" gradientUnits="userSpaceOnUse"><stop offset=".544" stop-color="#453659"/><stop offset="1" stop-color="#453659" stop-opacity="0"/></linearGradient><linearGradient id="d" x1="64.996" x2="64.996" y1="7.622" y2="124.829" gradientUnits="userSpaceOnUse"><stop offset=".544" stop-color="#453659"/><stop offset="1" stop-color="#453659" stop-opacity="0"/></linearGradient><clipPath id="a"><path fill="#fff" d="M0 .86h135v120H0z"/></clipPath></defs></svg>